<svg xmlns:svg="http://www.w3.org/2000/svg" xmlns="http://www.w3.org/2000/svg" xml:space="preserve" width="200px" height="164px" version="1.1" viewBox="0 0 20000000 16431925" id="svg2999" style="image-rendering:optimizeQuality;shape-rendering:geometricPrecision;text-rendering:geometricPrecision"><metadata id="metadata3011"/><defs id="defs3001"><style type="text/css" id="style3003">
   
    .fil0 {fill:#2250A3}
   
  </style></defs><g id="Слой_x0020_1"><metadata id="CorelCorpID_0Corel-Layer"/><path id="path4" class="fil0" d="M16587653 2210131c-1700019-1532864-3316460-2006601-3316460-2006601l-3260695 11105962-27915 0-3288554-11105962c0 0-1616441 459831-3316469 2006601-1811521 1644244-3372188 4166451-3107437 8165690 209033 3163155 2550066 5852573 2550066 5852573l4528798-13953c0 0-3887793-2062319-4821418-5309108-1114789-3832028 627052-6493587 1964789-7761634 543465-473793 1337728-585286 1630338 431972 1003305 3246789 3873840 12541230 3873840 12541230l13962 47c0 0 2856629-9294441 3873831-12541230 306573-1017258 1100845-905756 1630347-431972 1337737 1268056 3079577 3929559 1964779 7761634-933615 3246789-4821408 5309108-4821408 5309108l4528798 13962c0 0 2354986-2703324 2550066-5852582 236892-3999286-1323831-6521493-3149258-8165737z"/></g></svg>