<svg width="64" height="64" xmlns="http://www.w3.org/2000/svg" xmlns:svg="http://www.w3.org/2000/svg">

 <metadata id="metadata4482">image/svg+xml</metadata>
 <g>
  <title>Layer 1</title>
  <g display="inline" id="layer1">
   <path fill="#555555" d="m55.49081,0.04543a23.29215,23.29215 0 1 1 -46.58431,0a23.29215,23.29215 0 1 1 46.58431,0z" id="path2989-9-5"/>
   <path fill="#555555" d="m55.09795,63.94653a23.29215,23.29215 0 1 1 -46.58432,0a23.29215,23.29215 0 1 1 46.58432,0z" id="path2989-9-5-7"/>
  </g>
  <g display="inline" id="g3789">
   <path fill="#555555" fill-rule="nonzero" id="rect3797" d="m27,26.25l0,11.5c1.61991,-0.30603 3.29113,-0.46875 5,-0.46875c1.70887,0 3.38009,0.16272 5,0.46875l0,-11.5c-1.61991,0.30603 -3.29113,0.46875 -5,0.46875c-1.70887,0 -3.38009,-0.16272 -5,-0.46875z"/>
  </g>
 </g>
</svg>