<svg xmlns="http://www.w3.org/2000/svg" xmlns:svg="http://www.w3.org/2000/svg" width="120" height="120"><metadata>image/svg+xml</metadata><title>Layer 1</title><g transform="matrix(1.0123281,0,0,1.0123281,9.4503116,10.000213)"><path fill="#000000" d="m73.6 16.3c4.5 0.4 8.4-3 8.8-7.5 0.3-4.5-3-8.4-7.5-8.8 -4.5-0.3-8.4 3-8.8 7.5 -0.4 4.5 3 8.4 7.5 8.8zM66 18.6 66 18.6 66 18.6c2.1-1.3 4.2-0.8 6.3-0.6 2.8 0.2 5.1 2 6.5 4.1l8.2 16.4 11.3 7.8c1 0.7 1.6 1.9 1.4 3.2 -0.2 2-1.9 3.5-4 3.4 -0.6 0-1.1-0.3-1.7-0.5l-12.3-8.5c-0.4-0.3-0.7-0.7-0.9-1.1l-3.1-6.1 -3.7 16.3 14.5 17.2c0.3 0.5 0.6 1.2 0.7 1.8l3.9 20.7c0 0.5 0 0.7 0 1.1 -0.2 3.1-2.9 5.3-5.9 5.1 -2.5-0.2-4.4-2.1-5-4.4l-3.7-19.4 -11.8-12.9 -2.7 12.6c-0.1 0.6-0.9 1.8-1.1 2.3l-11.3 19.1c-1.1 1.7-3 2.9-5.2 2.7 -3.1-0.2-5.4-2.9-5.1-5.9 0.1-0.9 0.4-1.8 0.7-2.4l10.5-17.7 9.3-37.9 -5.4 6.9 -8.8 11.2c-1.1 1.4-3.2 2-4.9 1.1 -1.8-1-2.4-3.3-1.3-5.1 0.1-0.1 0.2-0.3 0.3-0.4l10.3-13c0.4-0.4 9-11.2 11.9-14.9 0.6-0.8 1.9-1.9 1.9-1.9z"/><rect fill="#000000" height="28" width="2.9" transform="matrix(0.792,0.6105,-0.6105,0.792,44.5027,-10.6491)" y="46" x="36.4"/><circle fill="#000000" r="3.5" cy="95.3" cx="13.6"/><path fill="#000000" d="m35 65.8l-9.8-7.6c-1.4-1.1-3.5-0.9-4.7 0.6l-1.4 1.7 -0.1-0.1c-1.4-1.1-3.5-0.9-4.7 0.6l-13.7 17.6c-1.1 1.4-0.9 3.5 0.6 4.7l0.1 0.1 -0.1 0.1c-1.1 1.4-0.9 3.5 0.6 4.7l7.1 5.5c0.7-2 2.5-3.4 4.7-3.4 1.9 0 3.6 1.1 4.4 2.7l17.5-22.4c1.1-1.4 0.9-3.5-0.6-4.7z"/></g></svg>