<svg xmlns="http://www.w3.org/2000/svg" xmlns:svg="http://www.w3.org/2000/svg" width="120" height="120"><metadata>image/svg+xml</metadata><title>Layer 1</title><path d="m25.1 52.2c0 17 18.2 30.7 40.8 30.7 22.5 0 40.8-13.7 40.8-30.7l-81.5 0zM44.6 110c-7.4 0-13.4-6-13.4-13.4 0-7.4 6-13.4 13.4-13.4 7.4 0 13.4 6 13.4 13.4 0 7.4-6 13.4-13.4 13.4l0 0zm0-21.7c-4.6 0-8.3 3.7-8.3 8.3 0 4.6 3.7 8.3 8.3 8.3 4.6 0 8.3-3.7 8.3-8.3 0-4.6-3.7-8.3-8.3-8.3l0 0zM86.5 110c-7.4 0-13.4-6-13.4-13.4 0-7.4 6-13.4 13.4-13.4 7.4 0 13.4 6 13.4 13.4 0 7.4-6 13.4-13.4 13.4l0 0zm0-21.7c-4.6 0-8.3 3.7-8.3 8.3 0 4.6 3.7 8.3 8.3 8.3 4.6 0 8.3-3.7 8.3-8.3 0-4.6-3.7-8.3-8.3-8.3l0 0z"/><path d="m25.1 48.8l5.1 0c0 0 0 0 0 0 -0.2-8.5-4.6-18.7-14.3-19.1 -3.3-0.1-3.3 5 0 5.1 6.7 0.3 9 8.5 9.1 14 0 0 0 0 0 0zM27.7 51.2c0 0 0 0 0 0l0 0z"/><path d="m80.5 13.9l0 0c0.1-0.2 0.1-0.5 0.2-0.7 0.9-3.2-4.1-4.6-5-1.4 -0.1 0.2-0.1 0.4-0.2 0.7 -3.3 11.9-6.6 23.7-9.9 35.6 -0.1 0.2-0.1 0.5-0.1 0.7l41 0c0-15.9-10.8-29.4-26.1-34.9z"/></svg>