<svg xmlns:svg="http://www.w3.org/2000/svg" xmlns="http://www.w3.org/2000/svg" version="1.1" x="0" y="0" width="128" height="128" viewBox="0 0 100 100" enable-background="new 0 0 100 100" xml:space="preserve"><path d="M50 0C22.4 0 0 22.4 0 50 0 77.6 22.4 100 50 100 77.6 100 100 77.6 100 50 100 22.4 77.6 0 50 0zM42.9 73.6l-23.6-23.6 9.4-9.4 14.1 14.1 28.3-28.3 9.4 9.4-37.7 37.7z" fill="#00b200"/><path d="M91.2 33.8L54.9 70 36.8 51.9 24.8 64 54.9 94.2 103.2 45.9 91.2 33.8z" transform="scale(0.78125,0.78125)" fill="#fff"/></svg>