<svg xmlns="http://www.w3.org/2000/svg" xmlns:svg="http://www.w3.org/2000/svg" width="120" height="120"><metadata>image/svg+xml</metadata><g transform="matrix(1.0625299,0,0,1.0625299,-8.5133058,-3.7268238)"><title>Layer 1</title><path fill="#231f20" d="m52.8 29.5c4.6 0 8.3-3.7 8.3-8.3 0-4.6-3.7-8.3-8.3-8.3 -4.6 0-8.3 3.7-8.3 8.3 0 4.5 3.7 8.3 8.3 8.3zM93 91.1c1.3 2.1 4.4 3 6.6 1.7 2.3-1.4 3-4.2 1.7-6.6l-14.1-24.4c-0.9-1.5-2.4-2.3-4-2.3l-20.7 0 -0.2-6.2 15 0c2.1-0.1 3.7-1.7 3.7-3.8 0-2.1-1.6-3.7-3.7-3.8l-15.5 0 -0.5-7.1c-0.3-4.3-4-7.8-8.4-7.5 -4.4 0.3-7.8 4.1-7.5 8.5l1.4 25.1c0.4 4.4 4.1 7.5 8.4 7.5l26.8 0 11 19zM58.1 100.5c-13.6 0-24.6-11-24.6-24.6 0-7.4 3.4-14.1 8.6-18.6l-0.4-7.7c-8.8 5.5-14.7 15.2-14.7 26.3 0 17.2 13.9 31.1 31.1 31.1 12.6 0 23.5-7.6 28.3-18.5l-4.4-7.6c-2.3 11.1-12.1 19.5-24 19.5z"/></g></svg>