<?xml version="1.0" encoding="UTF-8" standalone="no"?>
<!-- Created with Inkscape (http://www.inkscape.org/) -->

<svg
   xmlns:dc="http://purl.org/dc/elements/1.1/"
   xmlns:cc="http://creativecommons.org/ns#"
   xmlns:rdf="http://www.w3.org/1999/02/22-rdf-syntax-ns#"
   xmlns:svg="http://www.w3.org/2000/svg"
   xmlns="http://www.w3.org/2000/svg"
   version="1.1"
   width="64.683403"
   height="40.519566"
   id="svg3010">
  <defs
     id="defs3012" />
  <metadata
     id="metadata3015">
    <rdf:RDF>
      <cc:Work
         rdf:about="">
        <dc:format>image/svg+xml</dc:format>
        <dc:type
           rdf:resource="http://purl.org/dc/dcmitype/StillImage" />
        <dc:title></dc:title>
      </cc:Work>
    </rdf:RDF>
  </metadata>
  <g
     transform="translate(-303.05447,-518.71103)"
     id="layer1">
    <g
       transform="matrix(0.37001591,0,0,0.3679512,270.94403,483.10025)"
       id="g3803"
       style="stroke:#000000;stroke-opacity:1">
      <g
         transform="translate(0.23526001,0.27837224)"
         id="g3796"
         style="stroke:#000000;stroke-opacity:1">
        <g
           transform="translate(-2.1135444,-147.062)"
           id="g3771"
           style="stroke:#000000;stroke-opacity:1">
          <path
             d="m 170,292.36218 20,0 m -20,-15 0,35 25,0 10,15"
             id="path3773"
             style="fill:none;stroke:#000000;stroke-width:10;stroke-linecap:round;stroke-linejoin:round;stroke-miterlimit:4;stroke-opacity:1;stroke-dasharray:none" />
          <path
             d="m 205.30343,340.23769 c -0.98839,1.46301 -2.11386,2.8258 -3.35799,4.06993 -1.24413,1.24413 -2.60692,2.36961 -4.06993,3.35799 -1.46301,0.98839 -3.02624,1.83969 -4.67127,2.53548 -1.64503,0.69578 -3.37185,1.23606 -5.16203,1.60238 -1.79018,0.36633 -3.64373,0.55871 -5.54221,0.55871 -1.89848,0 -3.75203,-0.19238 -5.54221,-0.5587 -1.79019,-0.36633 -3.51701,-0.9066 -5.16203,-1.60239 -1.64503,-0.69579 -3.20826,-1.54709 -4.67127,-2.53548 -1.46301,-0.98839 -2.8258,-2.11386 -4.06993,-3.35799 -1.24413,-1.24413 -2.36961,-2.60692 -3.35799,-4.06992 -0.98839,-1.46302 -1.8397,-3.02625 -2.53548,-4.67128 -0.69578,-1.64503 -1.23606,-3.37185 -1.60238,-5.16203 C 155.19238,328.61421 155,326.76066 155,324.86218 c 0,-1.89848 0.19238,-3.75203 0.5587,-5.54221 0.36633,-1.79019 0.9066,-3.51701 1.60239,-5.16203 0.69579,-1.64503 1.54709,-3.20826 2.53548,-4.67127 0.98839,-1.46301 2.11386,-2.8258 3.35799,-4.06993 1.24413,-1.24413 2.60692,-2.3696 4.06993,-3.35799 1.46301,-0.98839 3.02624,-1.8397 4.67127,-2.53548"
             transform="matrix(1.0100252,0,0,1.0100252,-10.927426,-16.765701)"
             id="path3775"
             style="fill:none;stroke:#000000;stroke-width:6.93052006;stroke-miterlimit:4;stroke-opacity:1" />
          <path
             d="m 175,262.36218 a 5,5 0 1 1 -10,0 5,5 0 1 1 10,0 z"
             transform="matrix(1.5789531,0,0,1.5789531,-98.422022,-151.57646)"
             id="path3777"
             style="fill:#000000;fill-opacity:1;stroke:#000000;stroke-opacity:1" />
        </g>
        <rect
           width="102.9593"
           height="102.9593"
           x="122.47005"
           y="100.16602"
           id="rect3779"
           style="fill:none;stroke:#000000;stroke-width:7;stroke-linecap:round;stroke-linejoin:round;stroke-miterlimit:4;stroke-opacity:1;stroke-dasharray:none" />
      </g>
      <path
         d="m 95.831978,104.90128 -2.831256,8.75116 -2.805516,8.75115 5.636772,0 5.636772,0 -2.805517,-8.75115 -2.831255,-8.75116 z m 0,17.57953 0,82.36379 0,-82.36379 z"
         id="path3781"
         style="fill:#000000;fill-opacity:1;stroke:#000000;stroke-width:5;stroke-linecap:butt;stroke-linejoin:miter;stroke-miterlimit:4;stroke-opacity:1;stroke-dasharray:none" />
      <path
         d="m 252.53793,197.8039 -2.83125,-8.75116 -2.80552,-8.75115 5.63677,0 5.63678,0 -2.80552,8.75115 -2.83126,8.75116 z m 0,-17.57953 0,-82.363794 0,82.363794 z"
         id="path3794"
         style="fill:#000000;fill-opacity:1;stroke:#000000;stroke-width:5;stroke-linecap:butt;stroke-linejoin:miter;stroke-miterlimit:4;stroke-opacity:1;stroke-dasharray:none" />
    </g>
  </g>
</svg>
