<svg xmlns="http://www.w3.org/2000/svg" xmlns:xlink="http://www.w3.org/1999/xlink" version="1.1" id="Layer_1" x="0px" y="0px" width="100" height="100" viewBox="0 0 99.867 98.782" enable-background="new 0 0 99.867 98.782" xml:space="preserve">
<g>
	<path fill="#000000" d="M73.57,16.334c4.52,0.375,8.443-2.987,8.816-7.501c0.344-4.515-3.019-8.436-7.54-8.809   c-4.483-0.344-8.436,3.018-8.777,7.532C65.694,12.041,69.056,15.993,73.57,16.334z"/>
	<path fill="#000000" d="M66.041,18.634c2.062-1.251,4.167-0.804,6.345-0.616c2.802,0.218,5.114,1.959,6.516,4.079L87.15,38.47   l11.269,7.752c0.965,0.747,1.557,1.93,1.432,3.237c-0.154,2.024-1.931,3.549-3.952,3.362c-0.623-0.031-1.121-0.281-1.682-0.53   L81.92,43.824c-0.373-0.311-0.686-0.684-0.933-1.088l-3.082-6.132l-3.713,16.31l14.515,17.153c0.342,0.528,0.561,1.15,0.686,1.772   l3.921,20.702c-0.03,0.467,0.03,0.749,0,1.121c-0.218,3.081-2.895,5.323-5.945,5.105c-2.521-0.218-4.392-2.085-4.981-4.391   l-3.704-19.394l-11.806-12.92l-2.739,12.578c-0.093,0.588-0.871,1.836-1.089,2.334l-11.33,19.081   c-1.12,1.742-3.021,2.863-5.169,2.677c-3.082-0.217-5.353-2.894-5.105-5.945c0.063-0.872,0.437-1.773,0.749-2.396L52.714,72.74   l9.332-37.919l-5.439,6.855l-8.76,11.156c-1.134,1.424-3.229,2.039-4.872,1.075c-1.784-1.031-2.361-3.28-1.326-5.063   c0.065-0.139,0.159-0.265,0.271-0.421l10.264-12.99c0.409-0.431,9.006-11.247,11.939-14.941   C64.73,19.728,66.041,18.634,66.041,18.634z"/>
	
		<rect x="36.441" y="46.003" transform="matrix(0.792 0.6105 -0.6105 0.792 44.5027 -10.6491)" fill="#000000" width="2.877" height="27.964"/>
	<circle fill="#000000" cx="13.621" cy="95.277" r="3.505"/>
	<path fill="#000000" d="M34.975,65.815l-9.767-7.628c-1.45-1.132-3.542-0.873-4.673,0.576l-1.366,1.749l-0.072-0.058   c-1.449-1.133-3.543-0.874-4.674,0.574L0.705,78.596c-1.13,1.449-0.873,3.541,0.575,4.673l0.072,0.057l-0.113,0.146   c-1.132,1.448-0.873,3.541,0.575,4.673L8.9,93.678c0.67-1.976,2.52-3.407,4.721-3.407c1.914,0,3.557,1.087,4.399,2.665   l17.529-22.446C36.681,69.04,36.423,66.947,34.975,65.815z"/>
</g>
</svg>