<?xml version="1.0" encoding="UTF-8" standalone="no"?>
<svg
   xmlns:dc="http://purl.org/dc/elements/1.1/"
   xmlns:cc="http://creativecommons.org/ns#"
   xmlns:rdf="http://www.w3.org/1999/02/22-rdf-syntax-ns#"
   xmlns:svg="http://www.w3.org/2000/svg"
   xmlns="http://www.w3.org/2000/svg"
   xmlns:sodipodi="http://sodipodi.sourceforge.net/DTD/sodipodi-0.dtd"
   xmlns:inkscape="http://www.inkscape.org/namespaces/inkscape"
   width="213.21625"
   height="360.41623"
   viewBox="0 0 213.21625 360.41623"
   preserveAspectRatio="xMinYMin meet"
   id="svg2"
   version="1.1"
   inkscape:version="0.48.4 r9939"
   sodipodi:docname="walking-man-green.svg"
   inkscape:export-filename="C:\Users\Anna\Dropbox\инфографика\walking-man-green.png"
   inkscape:export-xdpi="123"
   inkscape:export-ydpi="123">
  <defs
     id="defs16" />
  <sodipodi:namedview
     pagecolor="#ffffff"
     bordercolor="#666666"
     borderopacity="1"
     objecttolerance="10"
     gridtolerance="10"
     guidetolerance="10"
     inkscape:pageopacity="0"
     inkscape:pageshadow="2"
     inkscape:window-width="1280"
     inkscape:window-height="738"
     id="namedview14"
     showgrid="false"
     fit-margin-top="0"
     fit-margin-left="0"
     fit-margin-right="0"
     fit-margin-bottom="0"
     inkscape:zoom="0.49166667"
     inkscape:cx="154.58375"
     inkscape:cy="186.7808"
     inkscape:window-x="-8"
     inkscape:window-y="-8"
     inkscape:window-maximized="1"
     inkscape:current-layer="svg2" />
  <title
     id="title4">walking man black</title>
  <metadata
     id="metadata12390">image/svg+xmlOther map symbolsMohamed IbrahimPublic Domainclker.comother map symbols<rdf:RDF>
  <cc:Work
     rdf:about="">
    <dc:format>image/svg+xml</dc:format>
    <dc:type
       rdf:resource="http://purl.org/dc/dcmitype/StillImage" />
    <dc:title>walking man black</dc:title>
  </cc:Work>
</rdf:RDF>
</metadata>
  <g
     id="g3766"
     transform="translate(-165.41625,-66.364573)">
    <path
       style="fill:#000000;fill-opacity:1;fill-rule:nonzero"
       inkscape:connector-curvature="0"
       id="path4536"
       d="m 282.67163,126.00011 c 16.5163,1.33758 30.82266,-10.93334 32.16025,-27.391482 1.27945,-16.458145 -10.99149,-30.764511 -27.50778,-32.160263 -16.34183,-1.221268 -30.7645,11.049637 -31.98578,27.507782 -1.39575,16.341823 10.87515,30.764523 27.33331,32.043963" />
    <path
       style="fill:#000000;fill-opacity:1;fill-rule:nonzero"
       inkscape:connector-curvature="0"
       id="path4538"
       d="m 257.37378,138.27101 c 5.87375,-4.12907 13.02692,-6.8624 20.99429,-6.16454 10.23548,0.81418 18.60993,7.1532 23.72766,14.88794 l 30.12479,59.7262 41.1163,28.32196 c 3.48935,2.6752 5.69928,7.03686 5.23404,11.80566 -0.58157,7.38584 -7.0369,12.91065 -14.4227,12.27094 -2.2681,-0.11633 -4.12906,-1.04682 -6.16452,-1.97733 l -44.83829,-30.88083 c -1.39572,-1.10495 -2.5007,-2.5007 -3.43118,-3.95459 l -11.22412,-22.39007 -13.55035,59.55176 52.9801,62.57583 c 1.22128,1.91916 2.03546,4.18723 2.50073,6.45532 l 14.30637,75.54462 c -0.11634,1.68652 0.1163,2.73334 0,4.07092 -0.81418,11.28226 -10.58438,19.42411 -21.6922,18.60993 -9.2468,-0.75604 -16.05103,-7.5603 -18.20282,-15.99292 l -13.49219,-70.77582 -43.09357,-47.10635 -9.9447,45.88507 c -0.34891,2.15176 -3.19855,6.68792 -4.01276,8.49078 l -41.3489,69.67087 c -4.07093,6.33899 -10.99149,10.40991 -18.84253,9.7702 -11.22412,-0.81418 -19.54042,-10.58438 -18.60993,-21.75033 0.23262,-3.14045 1.57023,-6.45533 2.73334,-8.72339 l 38.38294,-64.3787 32.04397,-141.9006 -20.93619,16.9234 -11.10778,50.53754 c -1.51206,6.51346 -7.38581,11.80566 -14.30637,11.28226 -7.50211,-0.58158 -12.96878,-7.03687 -12.38721,-14.53901 0,-0.58154 0.1163,-1.16311 0.23261,-1.86099 l 13.14325,-58.91202 c 0.81418,-2.5007 2.15179,-4.76879 4.12909,-6.51345 l 59.95883,-48.56026 z" />
  </g>
</svg>
