<svg xmlns="http://www.w3.org/2000/svg" width="21" height="21" preserveAspectRatio="xMinYMin meet" viewBox="0 0 21 21"><defs><marker orient="auto" overflow="visible"><path d="M2.308 0l-3.46 2v-4l3.46 2z" fill-rule="evenodd" stroke="#000" stroke-width=".4pt"/></marker><marker orient="auto" overflow="visible"><path d="M4.616 0l-6.92 4v-8l6.92 4z" fill-rule="evenodd" stroke="#000" stroke-width=".8pt"/></marker></defs><path d="M0 0h21v21H0z" fill="#fff"/><g><path d="M15.437 15.465c-.288.282-.604.54-.943.764-.34.224-.702.418-1.082.576-.382.158-.782.282-1.197.364-.414.084-.843.127-1.284.127-.44 0-.87-.043-1.285-.127-.415-.082-.815-.206-1.196-.364-.38-.158-.742-.352-1.082-.577-.34-.225-.655-.483-.943-.765-.288-.28-.55-.592-.78-.925-.227-.333-.425-.69-.586-1.063-.16-.374-.288-.767-.37-1.175-.085-.406-.13-.827-.13-1.26 0-.432.045-.855.13-1.26.082-.408.21-.8.37-1.175.162-.373.36-.73.588-1.063.23-.332.49-.643.778-.925.288-.283.604-.54.943-.765.338-.225.7-.42 1.08-.577.384-.158.784-.282 1.2-.364.413-.084.842-.127 1.283-.127.44 0 .87.043 1.284.127.415.082.815.206 1.197.364.38.158.742.352 1.08.577" fill="none" stroke="#33b7da" stroke-width="2.5" stroke-linejoin="bevel"/><path d="M12.27 8.39l1.19-2.968 1.19-2.968 1.52 2.3 1.52 2.298-2.713.67z" fill="#33b7da" fill-rule="evenodd"/></g></svg>