<svg xmlns="http://www.w3.org/2000/svg" width="21" height="21" preserveAspectRatio="xMinYMin meet" viewBox="0 0 21 21"><defs><marker orient="auto" overflow="visible"><path d="M2.308 0l-3.46 2v-4l3.46 2z" fill-rule="evenodd" stroke="#000" stroke-width=".4pt"/></marker><marker orient="auto" overflow="visible"><path d="M4.616 0l-6.92 4v-8l6.92 4z" fill-rule="evenodd" stroke="#000" stroke-width=".8pt"/></marker></defs><path fill="#fff" d="M0 0h21v21H0z"/><g><path d="M16.213 15.264c-.31.31-.652.593-1.018.84s-.757.46-1.168.634c-.412.174-.844.31-1.292.4-.447.093-.91.14-1.386.14-.476 0-.94-.047-1.387-.14-.448-.09-.88-.226-1.292-.4-.41-.174-.8-.387-1.167-.634-.366-.247-.707-.53-1.018-.84-.31-.31-.593-.652-.84-1.018s-.46-.757-.634-1.168c-.173-.412-.31-.844-.4-1.292-.092-.447-.14-.91-.14-1.386 0-.475.048-.94.14-1.386.09-.448.227-.88.4-1.292.175-.41.388-.802.635-1.168.247-.366.53-.707.84-1.018.31-.31.652-.593 1.018-.84s.757-.46 1.168-.634c.413-.174.845-.31 1.293-.4.447-.093.91-.14 1.386-.14.474 0 .938.047 1.385.14.448.09.88.226 1.292.4.41.174.802.387 1.168.634" fill="none" stroke="#33b7da" stroke-width="2.439.692" stroke-linejoin="bevel"/><path d="M13.427 6.87l1.55-2.205 1.55-2.204.768 2.185.77 2.183-2.32.02z" fill="#33b7da" fill-rule="evenodd"/></g></svg>