<?xml version="1.0" encoding="UTF-8" standalone="no"?>
<svg
   xmlns:dc="http://purl.org/dc/elements/1.1/"
   xmlns:cc="http://creativecommons.org/ns#"
   xmlns:rdf="http://www.w3.org/1999/02/22-rdf-syntax-ns#"
   xmlns:svg="http://www.w3.org/2000/svg"
   xmlns="http://www.w3.org/2000/svg"
   xmlns:sodipodi="http://sodipodi.sourceforge.net/DTD/sodipodi-0.dtd"
   xmlns:inkscape="http://www.inkscape.org/namespaces/inkscape"
   xml:space="preserve"
   width="194.82164"
   height="159.93785"
   version="1.1"
   viewBox="0 0 19482164 16024919"
   id="svg2999"
   inkscape:version="0.48.5 r10040"
   sodipodi:docname="metro.svg"><sodipodi:namedview
     pagecolor="#ffffff"
     bordercolor="#666666"
     borderopacity="1"
     objecttolerance="10"
     gridtolerance="10"
     guidetolerance="10"
     inkscape:pageopacity="0"
     inkscape:pageshadow="2"
     inkscape:window-width="640"
     inkscape:window-height="480"
     id="namedview9"
     showgrid="false"
     fit-margin-top="0"
     fit-margin-left="0"
     fit-margin-right="0"
     fit-margin-bottom="0"
     inkscape:zoom="1.4390244"
     inkscape:cx="97.403453"
     inkscape:cy="79.969203"
     inkscape:window-x="0"
     inkscape:window-y="0"
     inkscape:window-maximized="0"
     inkscape:current-layer="svg2999" /><metadata
     id="metadata3011"><rdf:RDF><cc:Work
         rdf:about=""><dc:format>image/svg+xml</dc:format><dc:type
           rdf:resource="http://purl.org/dc/dcmitype/StillImage" /></cc:Work></rdf:RDF></metadata><defs
     id="defs3001"><style
       type="text/css"
       id="style3003">
   
    .fil0 {fill:#2250A3}
   
  </style></defs><g
     id="Слой_x0020_1"
     transform="translate(-260160.13,-203530)"><metadata
       id="CorelCorpID_0Corel-Layer" /><path
       id="path4"
       class="fil0"
       d="M 16587653,2210131 C 14887634,677267 13271193,203530 13271193,203530 l -3260695,11105962 -27915,0 L 6694029,203530 c 0,0 -1616441,459831 -3316469,2006601 C 1566039,3854375 5372,6376582 270123,10375821 c 209033,3163155 2550066,5852573 2550066,5852573 l 4528798,-13953 c 0,0 -3887793,-2062319 -4821418,-5309108 -1114789,-3832028 627052,-6493587 1964789,-7761634 543465,-473793 1337728,-585286 1630338,431972 1003305,3246789 3873840,12541230 3873840,12541230 l 13962,47 c 0,0 2856629,-9294441 3873831,-12541230 306573,-1017258 1100845,-905756 1630347,-431972 1337737,1268056 3079577,3929559 1964779,7761634 -933615,3246789 -4821408,5309108 -4821408,5309108 l 4528798,13962 c 0,0 2354986,-2703324 2550066,-5852582 236892,-3999286 -1323831,-6521493 -3149258,-8165737 z"
       inkscape:connector-curvature="0"
       style="fill:#2250a3" /></g></svg>