<?xml version="1.0" encoding="UTF-8" standalone="no"?>
<!-- Created with Inkscape (http://www.inkscape.org/) -->

<svg
   xmlns:dc="http://purl.org/dc/elements/1.1/"
   xmlns:cc="http://creativecommons.org/ns#"
   xmlns:rdf="http://www.w3.org/1999/02/22-rdf-syntax-ns#"
   xmlns:svg="http://www.w3.org/2000/svg"
   xmlns="http://www.w3.org/2000/svg"
   xmlns:sodipodi="http://sodipodi.sourceforge.net/DTD/sodipodi-0.dtd"
   xmlns:inkscape="http://www.inkscape.org/namespaces/inkscape"
   id="svg2985"
   version="1.1"
   inkscape:version="0.48.1 "
   width="194"
   height="192"
   sodipodi:docname="6.6_(Road_sign).png">
  <metadata
     id="metadata2991">
    <rdf:RDF>
      <cc:Work
         rdf:about="">
        <dc:format>image/svg+xml</dc:format>
        <dc:type
           rdf:resource="http://purl.org/dc/dcmitype/StillImage" />
        <dc:title></dc:title>
      </cc:Work>
    </rdf:RDF>
  </metadata>
  <defs
     id="defs2989" />
  <sodipodi:namedview
     pagecolor="#ffffff"
     bordercolor="#666666"
     borderopacity="1"
     objecttolerance="10"
     gridtolerance="10"
     guidetolerance="10"
     inkscape:pageopacity="0"
     inkscape:pageshadow="2"
     inkscape:window-width="1024"
     inkscape:window-height="706"
     id="namedview2987"
     showgrid="false"
     showguides="true"
     inkscape:guide-bbox="true"
     inkscape:zoom="2.5733464"
     inkscape:cx="70.934815"
     inkscape:cy="102.95345"
     inkscape:window-x="-8"
     inkscape:window-y="-8"
     inkscape:window-maximized="1"
     inkscape:current-layer="svg2985" />
  <rect
     style="fill:#0d69e1;stroke:none;stroke-width:1.98099995000000000;stroke-linecap:round;stroke-linejoin:miter;stroke-miterlimit:3.97659588000000010;stroke-opacity:1;stroke-dasharray:none;fill-opacity:1"
     id="rect3023"
     width="169.81778"
     height="169.42918"
     x="10.492175"
     y="10.524238"
     rx="7.3637767"
     ry="7.3637767" />
  <rect
     style="fill:none;stroke:#000000;stroke-width:1.98099995000000000;stroke-linecap:round;stroke-linejoin:miter;stroke-miterlimit:3.97659588000000010;stroke-opacity:1;stroke-dasharray:none"
     id="rect2999"
     width="178.75557"
     height="179.53275"
     x="5.8289857"
     y="5.0838499"
     rx="7.3637767" />
  <g
     id="g3011"
     style="stroke:none">
    <path
       transform="matrix(0.77057876,-0.83519904,0.91527957,0.65857232,-11.059076,73.836391)"
       d="m 88.600583,32.868683 c 0,5.258124 -4.436534,9.520676 -9.909276,9.520676 -5.472742,0 -9.909276,-4.262552 -9.909276,-9.520676 0,-5.258125 4.436534,-9.520677 9.909276,-9.520677 5.472742,0 9.909276,4.262552 9.909276,9.520677 z"
       sodipodi:ry="9.5206766"
       sodipodi:rx="9.909276"
       sodipodi:cy="32.868683"
       sodipodi:cx="78.691307"
       id="path2995"
       style="fill:#ffffff;stroke:none;stroke-width:1.75652421000000000;stroke-linecap:round;stroke-linejoin:miter;stroke-miterlimit:3.97659588000000010;stroke-opacity:1;stroke-dasharray:none;fill-opacity:1"
       sodipodi:type="arc" />
    <path
       sodipodi:nodetypes="ccccc"
       inkscape:connector-curvature="0"
       id="path3005"
       d="m 71.305678,62.165961 1.923467,11.815585 -11.540803,13.464271 c -4.50435,1.76379 -8.718337,-0.257644 -6.319964,-5.907792 z"
       style="fill:#ffffff;stroke:none;stroke-width:1px;stroke-linecap:butt;stroke-linejoin:miter;stroke-opacity:1;fill-opacity:1" />
    <path
       sodipodi:nodetypes="ccccc"
       inkscape:connector-curvature="0"
       id="path3007"
       d="m 67.046572,119.32042 6.732135,10.16689 -7.556478,21.70771 c -5.699353,4.45562 -9.221542,2.36191 -10.166898,-4.53389 z"
       style="fill:#ffffff;stroke:none;stroke-width:1px;stroke-linecap:butt;stroke-linejoin:miter;stroke-opacity:1;fill-opacity:1" />
    <path
       sodipodi:nodetypes="ccccccccccccccc"
       inkscape:connector-curvature="0"
       id="path3009"
       d="m 114.30891,76.317185 c 1.37785,5.96427 -5.99408,12.02299 -9.34256,1.923467 l -2.19824,-16.486862 -10.441683,-7.419088 2.74781,24.730293 c 0.505966,5.948497 -1.416408,6.743413 -3.022591,8.518212 l -13.18949,20.867993 14.563395,26.66913 c 1.694296,4.22991 -4.632646,9.64301 -8.792993,5.22084 L 66.657973,108.4512 c 2.123988,-5.42546 9.469668,-15.830504 12.204183,-21.142774 l -4.946058,-37.37022 14.288614,-9.342555 21.982478,14.288614 z"
       style="fill:#ffffff;fill-opacity:1;stroke:none" />
  </g>
  <path
     style="fill:#ffffff;stroke:none;stroke-width:1px;stroke-linecap:butt;stroke-linejoin:miter;stroke-opacity:1;fill-opacity:1"
     d="m 180.69856,120.10917 -33.41951,0 0,11.65798 -33.41952,0 0,11.65797 -32.642326,0 0,11.65797 -33.808118,0 0,11.65797 -36.916911,0 0,13.60097 42.745897,0 0,-12.43517 34.196717,0 0,-12.43517 33.030921,0 0,-11.65797 32.25372,0 0,-11.65798 27.97913,0 z"
     id="path3019"
     inkscape:connector-curvature="0" />
</svg>
