<?xml version="1.0" encoding="UTF-8" standalone="no"?>
<!-- Created with Inkscape (http://www.inkscape.org/) -->

<svg
   xmlns:dc="http://purl.org/dc/elements/1.1/"
   xmlns:cc="http://creativecommons.org/ns#"
   xmlns:rdf="http://www.w3.org/1999/02/22-rdf-syntax-ns#"
   xmlns:svg="http://www.w3.org/2000/svg"
   xmlns="http://www.w3.org/2000/svg"
   xmlns:sodipodi="http://sodipodi.sourceforge.net/DTD/sodipodi-0.dtd"
   xmlns:inkscape="http://www.inkscape.org/namespaces/inkscape"
   id="svg3004"
   version="1.1"
   inkscape:version="0.48.4 r9939"
   width="1581.25"
   height="991.25"
   xml:space="preserve"
   sodipodi:docname="New_Logo.svg"><metadata
     id="metadata3010"><rdf:RDF><cc:Work
         rdf:about=""><dc:format>image/svg+xml</dc:format><dc:type
           rdf:resource="http://purl.org/dc/dcmitype/StillImage" /><dc:title></dc:title></cc:Work></rdf:RDF></metadata><defs
     id="defs3008" /><sodipodi:namedview
     pagecolor="#ffffff"
     bordercolor="#666666"
     borderopacity="1"
     objecttolerance="10"
     gridtolerance="10"
     guidetolerance="10"
     inkscape:pageopacity="0"
     inkscape:pageshadow="2"
     inkscape:window-width="1543"
     inkscape:window-height="876"
     id="namedview3006"
     showgrid="false"
     inkscape:zoom="0.76468148"
     inkscape:cx="904.55644"
     inkscape:cy="459.18916"
     inkscape:window-x="57"
     inkscape:window-y="24"
     inkscape:window-maximized="1"
     inkscape:current-layer="g3012" /><g
     id="g3012"
     inkscape:groupmode="layer"
     inkscape:label="ink_ext_XXXXXX"
     transform="matrix(1.25,0,0,-1.25,0,991.25)"><path
       inkscape:connector-curvature="0"
       id="path3016"
       style="fill:#ffffff;fill-opacity:1;fill-rule:nonzero;stroke:none"
       d="m 230.16119,566.27061 29,0 0,29 -29,0 0,-29 z" /><path
       inkscape:connector-curvature="0"
       id="path3018"
       style="fill:#ffffff;fill-opacity:1;fill-rule:nonzero;stroke:none"
       d="m 1249,0 16,0 0,16 -16,0 0,-16 z" /><path
       inkscape:connector-curvature="0"
       id="path3020"
       style="fill:#000000;fill-opacity:1;fill-rule:nonzero;stroke:none"
       d="m 452.918,534.334 c 3.513,0.001 7.025,0.002 10.538,0.004 0.036,0 0.072,-0.007 0.128,-0.012 0,-0.832 0,-1.659 0,-2.511 -2.665,0 -5.321,0 -7.998,0 0,-0.816 0,-1.608 0,-2.428 1.602,0 3.202,0 4.82,0 0,-0.849 0,-1.67 0,-2.52 -1.597,0 -3.197,0 -4.827,0 0,-1.94 0,-3.851 0,-5.799 -0.908,0 -1.784,0 -2.661,0 0,4.422 0,8.844 0,13.266" /><path
       inkscape:connector-curvature="0"
       id="path3022"
       style="fill:#000000;fill-opacity:1;fill-rule:nonzero;stroke:none"
       d="m 481.738,521.093 c 0,4.416 0,8.816 0,13.234 0.091,0.004 0.171,0.011 0.251,0.011 2.44,0 4.88,0 7.32,0 0.939,0.001 1.848,-0.134 2.651,-0.663 0.799,-0.525 1.317,-1.241 1.508,-2.2 0.163,-0.813 0.214,-1.621 0.02,-2.426 -0.27,-1.12 -1.009,-1.861 -2.011,-2.369 -0.138,-0.07 -0.283,-0.126 -0.457,-0.204 1.044,-1.792 2.084,-3.574 3.14,-5.386 -0.093,-0.009 -0.16,-0.02 -0.226,-0.021 -0.825,-10e-4 -1.651,0.006 -2.477,-0.005 -0.18,-0.003 -0.277,0.055 -0.366,0.208 -0.918,1.573 -1.847,3.141 -2.764,4.715 -0.115,0.199 -0.241,0.272 -0.475,0.268 -1.054,-0.014 -2.109,-0.006 -3.164,-0.006 -0.099,0 -0.198,0 -0.318,0 0,-1.728 0,-3.43 0,-5.156 -0.885,0 -1.749,0 -2.632,0 z m 2.638,10.715 c 0,-1.015 0,-1.992 0,-2.97 0.041,-0.01 0.067,-0.023 0.092,-0.023 1.687,0.003 3.375,0.003 5.063,0.019 0.212,0.002 0.441,0.059 0.633,0.15 0.593,0.281 0.876,1.052 0.701,1.833 -0.13,0.58 -0.625,0.969 -1.298,0.976 -1.302,0.016 -2.605,0.012 -3.907,0.015 -0.421,10e-4 -0.842,0 -1.284,0" /><path
       inkscape:connector-curvature="0"
       id="path3024"
       style="fill:#000000;fill-opacity:1;fill-rule:nonzero;stroke:none"
       d="m 478.445,527.868 c -0.016,-1.938 -0.52,-3.523 -1.695,-4.853 -1.253,-1.419 -2.858,-2.145 -4.731,-2.251 -2.243,-0.127 -4.166,0.604 -5.678,2.291 -0.886,0.989 -1.375,2.174 -1.556,3.484 -0.225,1.633 -0.024,3.202 0.783,4.657 0.962,1.734 2.448,2.816 4.367,3.23 2.438,0.527 4.649,0.009 6.488,-1.732 1.092,-1.035 1.704,-2.345 1.927,-3.831 0.059,-0.389 0.076,-0.784 0.095,-0.995 z m -2.707,-0.19 c 0.025,0.005 0.049,0.011 0.073,0.016 -0.122,0.569 -0.182,1.161 -0.378,1.703 -0.535,1.476 -1.625,2.361 -3.164,2.603 -1.628,0.255 -3.019,-0.249 -4.023,-1.591 -0.861,-1.15 -1.022,-2.478 -0.719,-3.846 0.735,-3.327 4.325,-4.016 6.452,-2.517 1.247,0.879 1.742,2.146 1.759,3.632" /><path
       inkscape:connector-curvature="0"
       id="path3026"
       style="fill:#040606;fill-opacity:1;fill-rule:nonzero;stroke:none"
       d="m 388,525 54,0 0,4 -54,0 0,-4 z" /><path
       inkscape:connector-curvature="0"
       id="path3028"
       style="fill:#040606;fill-opacity:1;fill-rule:nonzero;stroke:none"
       d="m 560,529 -18.881,0 c -0.835,3.622 -4.08,6.333 -7.953,6.333 -3.871,0 -7.116,-2.711 -7.951,-6.333 l -20.215,0 0,-4 20.301,0 c 0.953,-3.453 4.114,-6 7.865,-6 3.753,0 6.914,2.547 7.866,6 l 18.968,0 0,4 z m -26.834,-6 c -2.297,0 -4.166,1.869 -4.166,4.167 0,2.297 1.869,4.166 4.166,4.166 2.298,0 4.168,-1.869 4.168,-4.166 0,-2.298 -1.87,-4.167 -4.168,-4.167" /><path
       inkscape:connector-curvature="0"
       id="path3030"
       style="fill:#040606;fill-opacity:1;fill-rule:nonzero;stroke:none"
       d="m 708,525 54,0 0,4 -54,0 0,-4 z" /><path
       inkscape:connector-curvature="0"
       id="path3032"
       style="fill:#040606;fill-opacity:1;fill-rule:nonzero;stroke:none"
       d="m 880,529 -18.881,0 c -0.835,3.622 -4.08,6.333 -7.953,6.333 -3.871,0 -7.116,-2.711 -7.951,-6.333 l -20.215,0 0,-4 20.301,0 c 0.953,-3.453 4.114,-6 7.865,-6 3.753,0 6.914,2.547 7.866,6 l 18.968,0 0,4 z m -26.834,-6 c -2.297,0 -4.166,1.869 -4.166,4.167 0,2.297 1.869,4.166 4.166,4.166 2.298,0 4.168,-1.869 4.168,-4.166 0,-2.298 -1.87,-4.167 -4.168,-4.167" /><path
       inkscape:connector-curvature="0"
       id="path3034"
       style="fill:#000000;fill-opacity:1;fill-rule:nonzero;stroke:none"
       d="m 390.907,582.43 c 1.287,0.008 4.119,-0.012 4.119,-0.012 0,0 6.647,-9.341 8.926,-12.534 0.2,-0.28 0.416,-0.549 0.696,-0.918 0.354,0.486 0.652,0.891 0.945,1.3 2.734,3.816 8.696,12.198 8.696,12.198 0,0 2.975,0 4.024,0 0,-8.858 0,-17.625 0,-26.444 -1.698,0 -3.361,0 -5.157,0 0,5.326 0,10.669 0,16.011 -0.071,0.019 -0.143,0.039 -0.214,0.058 -2.74,-3.945 -5.479,-7.889 -8.306,-11.959 -2.807,4.039 -5.563,8.005 -8.469,12.187 0,-5.574 0,-10.892 0,-16.348 -1.812,0 -3.536,0 -5.26,0 0,8.82 0,17.641 0,26.461" /><path
       inkscape:connector-curvature="0"
       id="path3036"
       style="fill:#000000;fill-opacity:1;fill-rule:nonzero;stroke:none"
       d="m 525.609,555.969 c -1.92,0 -3.625,-0.032 -5.327,0.028 -0.319,0.011 -0.746,0.317 -0.921,0.608 -1.791,2.97 -3.554,5.958 -5.289,8.962 -0.323,0.559 -0.659,0.809 -1.337,0.793 -2.212,-0.05 -4.425,-0.019 -6.738,-0.019 0,-3.482 0,-6.875 0,-10.319 -1.786,0 -3.471,0 -5.199,0 0,8.813 0,17.579 0,26.386 0.202,0.022 0.356,0.053 0.509,0.053 5.213,-0.007 10.427,0.039 15.639,-0.047 2.72,-0.046 5.003,-1.144 6.479,-3.543 2.597,-4.224 0.863,-9.844 -3.643,-11.898 -0.114,-0.052 -0.22,-0.12 -0.436,-0.24 2.068,-3.553 4.121,-7.082 6.263,-10.764 z m -19.555,21.399 c 0,-1.998 0,-3.94 0,-5.945 3.152,0 6.238,-10e-4 9.325,0.002 0.353,0 0.71,-10e-4 1.06,0.038 1.806,0.205 2.75,1.416 2.645,3.372 -0.086,1.613 -1.11,2.551 -2.884,2.565 -3.09,0.025 -6.18,0.017 -9.27,0.018 -0.281,0 -0.562,-0.031 -0.876,-0.05" /><path
       inkscape:connector-curvature="0"
       id="path3038"
       style="fill:#000000;fill-opacity:1;fill-rule:nonzero;stroke:none"
       d="m 548.88,555.347 c -7.963,10e-4 -13.731,5.845 -13.713,13.894 0.017,7.957 5.831,13.788 13.739,13.777 7.852,-0.009 13.738,-5.957 13.708,-13.852 -0.03,-7.95 -5.864,-13.821 -13.734,-13.819 z m 8.327,13.295 c 0.016,3.487 -1.197,6.096 -3.325,7.656 -3.667,2.687 -8.855,1.995 -11.571,-1.543 -2.806,-3.655 -2.212,-9.755 1.295,-12.506 2.725,-2.138 5.778,-2.441 8.889,-0.999 3.305,1.534 4.603,4.389 4.712,7.392" /><path
       inkscape:connector-curvature="0"
       id="path3040"
       style="fill:#000000;fill-opacity:1;fill-rule:nonzero;stroke:none"
       d="m 436.364,577.426 c 0,-1.638 0,-3.17 0,-4.806 3.199,0 6.398,0 9.663,0 0,-1.725 0,-3.347 0,-5.046 -3.211,0 -6.384,0 -9.634,0 0,-2.204 0,-4.334 0,-6.56 5.628,0 11.241,0 16.915,0 0,-1.714 0,-3.331 0,-4.997 -7.399,0 -14.752,0 -22.165,0 0,8.788 0,17.552 0,26.382 7.039,0 14.065,0 21.157,0 0,-1.626 0,-3.246 0,-4.973 -5.311,0 -10.6,0 -15.936,0" /><path
       inkscape:connector-curvature="0"
       id="path3042"
       style="fill:#000000;fill-opacity:1;fill-rule:nonzero;stroke:none"
       d="m 489.326,582.385 c 0,-1.678 0,-3.274 0,-4.953 -3.382,0 -6.715,0 -10.155,0 0,-7.176 0,-14.269 0,-21.412 -1.767,0 -3.43,0 -5.201,0 0,7.074 0,14.166 0,21.376 -3.463,0 -6.82,0 -10.223,0 0,1.716 0,3.313 0,4.989 8.506,0 17.01,0 25.579,0" /><path
       inkscape:connector-curvature="0"
       id="path3044"
       style="fill:#000000;fill-opacity:1;fill-rule:nonzero;stroke:none"
       d="m 387.73,473.584 c 0.293,0.633 0.575,1.271 0.882,1.898 4.176,8.52 8.358,17.037 12.524,25.563 0.187,0.385 0.397,0.52 0.815,0.507 0.987,-0.029 1.976,-0.038 2.962,0.003 0.483,0.02 0.728,-0.13 0.946,-0.573 4.426,-8.989 8.871,-17.969 13.312,-26.95 0.076,-0.152 0.162,-0.299 0.243,-0.448 -2.051,0 -4.103,0 -6.154,0 -1.066,2.153 -2.142,4.3 -3.187,6.463 -0.179,0.37 -0.393,0.471 -0.781,0.47 -3.869,-0.013 -7.738,-0.02 -11.608,0.006 -0.467,0.004 -0.652,-0.175 -0.831,-0.552 -1.015,-2.134 -2.052,-4.259 -3.082,-6.387 -2.014,0 -4.027,0 -6.041,0 z m 15.722,19.731 c -1.257,-2.547 -2.454,-4.976 -3.679,-7.457 2.511,0 4.923,0 7.409,0 -1.245,2.488 -2.459,4.916 -3.73,7.457" /><path
       inkscape:connector-curvature="0"
       id="path3046"
       style="fill:#000000;fill-opacity:1;fill-rule:nonzero;stroke:none"
       d="m 465.694,473.584 c 0,9.297 0,18.593 0,27.925 1.865,0 3.68,0 5.561,0 0,-7.499 0,-15.002 0,-22.555 15.21,0 1.55,0 16.777,0 0,-1.823 0,-3.596 0,-5.37 -7.446,0 -14.892,0 -22.338,0" /><path
       inkscape:connector-curvature="0"
       id="path3048"
       style="fill:#000000;fill-opacity:1;fill-rule:nonzero;stroke:none"
       d="m 536.995,473.584 c 0,9.297 0,18.593 0,27.925 1.866,0 3.68,0 5.561,0 0,-7.499 0,-15.002 0,-22.555 5.599,0 11.133,0 16.777,0 0,-1.823 0,-3.596 0,-5.37 -7.445,0 -14.892,0 -22.338,0" /><path
       inkscape:connector-curvature="0"
       id="path3050"
       style="fill:#000000;fill-opacity:1;fill-rule:nonzero;stroke:none"
       d="m 709.972,583.623 c 1.358,0.008 4.347,-0.013 4.347,-0.013 0,0 7.015,-9.858 9.421,-13.228 0.211,-0.295 0.438,-0.579 0.734,-0.969 0.373,0.513 0.688,0.941 0.997,1.372 2.886,4.028 9.178,12.874 9.178,12.874 0,0 3.14,0 4.246,0 0,-9.349 0,-18.602 0,-27.908 -1.791,0 -3.547,0 -5.442,0 0,5.62 0,11.259 0,16.897 -0.076,0.02 -0.151,0.041 -0.226,0.061 -2.891,-4.163 -5.783,-8.326 -8.766,-12.621 -2.962,4.263 -5.871,8.448 -8.938,12.862 0,-5.883 0,-11.495 0,-17.254 -1.912,0 -3.732,0 -5.551,0 0,9.309 0,18.618 0,27.927" /><path
       inkscape:connector-curvature="0"
       id="path3052"
       style="fill:#000000;fill-opacity:1;fill-rule:nonzero;stroke:none"
       d="m 777.616,534.593 c 0.922,-2.113 1.843,-4.225 2.764,-6.338 0.622,-1.427 1.245,-2.853 1.86,-4.284 0.073,-0.171 0.163,-0.241 0.354,-0.236 0.568,0.012 1.136,0.004 1.72,0.004 0,-1.838 0,-3.644 0,-5.469 -0.725,0 -1.44,0 -2.187,0 0,0.985 0,1.97 0,2.971 -3.55,0 -7.068,0 -10.619,0 0,-0.979 0,-1.964 0,-2.985 -0.768,0 -1.504,0 -2.24,0 0,1.822 0,3.644 0,5.465 0.539,0.006 1.08,0.034 1.618,0.009 0.302,-0.013 0.43,0.093 0.546,0.363 1.197,2.796 2.411,5.586 3.616,8.379 0.304,0.703 0.591,1.414 0.887,2.121 0.56,0 1.121,0 1.681,0 z m -0.82,-4.195 c -0.899,-2.248 -1.775,-4.439 -2.655,-6.639 1.792,0 3.546,0 5.334,0 -0.891,2.209 -1.771,4.389 -2.679,6.639" /><path
       inkscape:connector-curvature="0"
       id="path3054"
       style="fill:#000000;fill-opacity:1;fill-rule:nonzero;stroke:none"
       d="m 816.212,534.593 c 0.008,-0.11 0.021,-0.22 0.021,-0.329 0.001,-4.224 0.001,-8.448 0.001,-12.671 0,-0.099 0,-0.198 0,-0.315 -0.878,0 -1.734,0 -2.624,0 0,1.761 0,3.516 0,5.29 -0.12,0.007 -0.207,0.018 -0.294,0.018 -0.951,10e-4 -1.902,-0.007 -2.852,0.006 -0.21,0.003 -0.321,-0.072 -0.427,-0.244 -1.703,-2.754 -1.626,-2.602 -3.005,-4.839 -0.112,-0.182 -0.225,-0.259 -0.445,-0.256 -0.92,0.014 -1.841,0.006 -2.825,0.006 1.181,1.866 2.339,3.697 3.469,5.483 -0.55,0.26 -1.102,0.468 -1.6,0.767 -0.758,0.456 -1.25,1.128 -1.425,2.019 -0.194,0.987 -0.18,1.969 0.245,2.88 0.585,1.254 1.669,1.865 3.003,2.065 0.413,0.062 0.834,0.081 1.25,0.12 2.503,0 5.005,0 7.508,0 z m -2.623,-2.533 c -0.085,0.006 -0.144,0.015 -0.203,0.015 -1.631,0 -3.261,10e-4 -4.891,-0.005 -0.208,-0.001 -0.42,-0.023 -0.624,-0.064 -0.57,-0.115 -0.972,-0.529 -1.07,-1.078 -0.118,-0.66 0.116,-1.262 0.623,-1.568 0.427,-0.258 0.907,-0.291 1.389,-0.292 1.51,-0.003 3.021,-0.002 4.531,0 0.077,0 0.154,0.01 0.245,0.017 0,0.992 0,1.969 0,2.975" /><path
       inkscape:connector-curvature="0"
       id="path3056"
       style="fill:#000000;fill-opacity:1;fill-rule:nonzero;stroke:none"
       d="m 794.872,534.593 c 1.401,-3.092 2.801,-6.183 4.202,-9.275 0.544,-1.2 1.087,-2.401 1.63,-3.602 0.06,-0.134 0.119,-0.27 0.201,-0.457 -0.281,0 -0.525,0 -0.768,0 -0.61,0 -1.221,0.009 -1.832,-0.005 -0.209,-0.005 -0.309,0.059 -0.395,0.257 -1.295,2.985 -2.599,5.967 -3.903,8.948 -0.034,0.079 -0.077,0.154 -0.134,0.27 -0.398,-0.927 -0.78,-1.816 -1.161,-2.705 -0.928,-2.166 -1.858,-4.331 -2.778,-6.5 -0.087,-0.207 -0.191,-0.276 -0.417,-0.272 -0.848,0.016 -1.697,0.007 -2.589,0.007 0.312,0.694 0.61,1.355 0.906,2.018 1.672,3.725 3.344,7.45 5.015,11.175 0.02,0.044 0.028,0.094 0.041,0.141 0.661,0 1.321,0 1.982,0" /><path
       inkscape:connector-curvature="0"
       id="path3058"
       style="fill:#000000;fill-opacity:1;fill-rule:nonzero;stroke:none"
       d="m 883.328,569.113 c -0.183,-1.081 -0.298,-2.177 -0.559,-3.238 -1.828,-7.43 -8.758,-11.958 -16.412,-10.686 -5.86,0.975 -9.933,4.256 -11.51,10.002 -1.601,5.835 -0.623,11.301 4.112,15.473 4.542,4.002 9.891,4.675 15.434,2.504 5.343,-2.093 8.121,-6.302 8.759,-11.961 0.039,-0.345 0.116,-0.685 0.176,-1.027 0,-0.356 0,-0.712 0,-1.067 z m -23.442,0.326 c 0.08,-2.959 1.12,-5.728 3.889,-7.603 3.638,-2.464 8.713,-1.766 11.595,1.545 2.909,3.342 2.885,9.283 -0.05,12.582 -2.455,2.757 -6.328,3.683 -9.817,2.348 -3.481,-1.333 -5.606,-4.59 -5.617,-8.872" /><path
       inkscape:connector-curvature="0"
       id="path3060"
       style="fill:#000000;fill-opacity:1;fill-rule:nonzero;stroke:none"
       d="m 757.002,567.9 c 0,-2.331 0,-4.523 0,-6.893 2.983,0 5.987,0 8.99,0 2.976,0 5.951,0 8.978,0 0,-1.814 0,-3.505 0,-5.268 -7.836,0 -15.638,0 -23.511,0 0,9.264 0,18.525 0,27.877 7.443,0 14.886,0 22.419,0 0,-1.698 0,-3.414 0,-5.243 -5.601,0 -11.202,0 -16.868,0 0,-1.734 0,-3.357 0,-5.116 3.368,0 6.76,0 10.211,0 0,-1.828 0,-3.523 0,-5.357 -3.39,0 -6.776,0 -10.219,0" /><path
       inkscape:connector-curvature="0"
       id="path3062"
       style="fill:#000000;fill-opacity:1;fill-rule:nonzero;stroke:none"
       d="m 826.218,566.395 c 0,-3.609 0,-7.081 0,-10.64 -1.902,0 -3.72,0 -5.6,0 0,9.281 0,18.543 0,27.833 0.17,0.043 0.302,0.106 0.434,0.106 5.652,-0.015 11.307,0.047 16.956,-0.085 3.817,-0.089 6.814,-2.681 7.566,-6.198 0.831,-3.884 -0.622,-7.874 -3.553,-9.704 -1.654,-1.033 -3.507,-1.303 -5.412,-1.309 -3.41,-0.01 -6.82,-0.003 -10.391,-0.003 z m 0.034,5.493 c 3.678,0 7.231,-0.004 10.783,0.008 0.277,0 0.558,0.093 0.83,0.171 1.492,0.428 2.358,1.866 2.162,3.578 -0.185,1.623 -1.157,2.623 -2.78,2.653 -3.271,0.062 -6.543,0.047 -9.815,0.059 -0.378,10e-4 -0.757,-0.031 -1.18,-0.049 0,-2.175 0,-4.256 0,-6.42" /><path
       inkscape:connector-curvature="0"
       id="path3064"
       style="fill:#000000;fill-opacity:1;fill-rule:nonzero;stroke:none"
       d="m 811.122,583.616 c 0,-1.743 0,-3.434 0,-5.238 -3.568,0 -7.105,0 -10.738,0 0,-7.597 0,-15.081 0,-22.638 -1.885,0 -3.675,0 -5.565,0 0,7.496 0,14.978 0,22.589 -3.627,0 -7.157,0 -10.754,0 0,1.817 0,3.507 0,5.287 8.987,0 17.955,0 27.057,0" /><path
       inkscape:connector-curvature="0"
       id="path3066"
       style="fill:#000000;fill-opacity:1;fill-rule:nonzero;stroke:none"
       d="m 710.521,498.739 c 5.057,-0.01 10.115,0.037 15.17,-0.06 1.802,-0.035 3.67,-0.175 5.384,-0.684 5.153,-1.529 6.455,-7.706 2.532,-11.561 0.015,-0.041 0.02,-0.112 0.05,-0.124 4.761,-1.968 5.379,-9.759 1.339,-13.354 -1.478,-1.315 -3.155,-1.974 -5.069,-2.14 -1.028,-0.09 -2.061,-0.153 -3.093,-0.156 -5.438,-0.015 -10.875,-0.007 -16.313,-0.007 0,9.362 0,18.724 0,28.086 z m 5.725,-22.929 c 0.245,-0.015 0.405,-0.035 0.565,-0.034 3.916,0.031 7.832,0.043 11.748,0.103 2.043,0.032 3.255,1.305 3.362,3.417 0.106,2.092 -0.905,3.487 -3.017,3.568 -4.179,0.163 -8.366,0.108 -12.551,0.141 -0.021,0 -0.042,-0.032 -0.107,-0.085 0,-2.32 0,-4.676 0,-7.11 z m 0.007,17.74 c 0,-1.859 0,-3.586 0,-5.354 0.202,-0.017 0.36,-0.041 0.518,-0.041 3.262,-0.002 6.524,-0.01 9.785,0.008 0.566,0.003 1.142,0.072 1.695,0.196 1.281,0.288 1.977,1.252 1.96,2.625 -0.018,1.416 -0.532,2.076 -1.952,2.38 -0.578,0.124 -1.181,0.172 -1.774,0.177 -2.147,0.021 -4.294,0.009 -6.442,0.009 -1.244,0 -2.489,0 -3.79,0" /><path
       inkscape:connector-curvature="0"
       id="path3068"
       style="fill:#000000;fill-opacity:1;fill-rule:nonzero;stroke:none"
       d="m 806.67,470.799 c 0,9.311 0,18.58 0,27.92 7.454,0 14.914,0 22.437,0 0,-1.722 0,-3.447 0,-5.27 -5.597,0 -11.211,0 -16.871,0 0,-1.742 0,-3.387 0,-5.127 3.421,0 6.806,0 10.241,0 0,-1.819 0,-3.543 0,-5.348 -3.427,0 -6.813,0 -10.238,0 0,-2.322 0,-4.563 0,-6.869 5.999,0 11.947,0 17.954,0 0,-1.789 0,-3.515 0,-5.306 -7.798,0 -15.616,0 -23.523,0" /><path
       inkscape:connector-curvature="0"
       id="path3070"
       style="fill:#000000;fill-opacity:1;fill-rule:nonzero;stroke:none"
       d="m 851.111,471.193 c 3.881,4.781 7.643,9.417 11.423,14.075 -3.756,4.635 -7.478,9.228 -11.323,13.973 2.387,0 4.576,0.02 6.764,-0.027 0.243,-0.005 0.515,-0.352 0.712,-0.591 2.281,-2.771 4.549,-5.553 6.822,-8.33 0.153,-0.187 0.313,-0.367 0.527,-0.617 1.524,1.861 3.016,3.679 4.505,5.5 0.999,1.22 1.989,2.449 2.997,3.661 0.144,0.172 0.371,0.388 0.562,0.391 2.163,0.027 4.327,0.017 6.691,0.017 -3.839,-4.685 -7.551,-9.216 -11.321,-13.818 3.841,-4.701 7.672,-9.389 11.575,-14.164 -0.29,-0.03 -0.487,-0.068 -0.684,-0.068 -1.959,-0.005 -3.918,-0.024 -5.876,0.018 -0.317,0.006 -0.726,0.206 -0.929,0.451 -2.542,3.083 -5.053,6.19 -7.633,9.366 -1.384,-1.691 -2.733,-3.34 -4.082,-4.989 -1.205,-1.473 -2.402,-2.953 -3.625,-4.411 -0.168,-0.201 -0.464,-0.415 -0.704,-0.419 -2.066,-0.032 -4.132,-0.018 -6.401,-0.018" /><path
       inkscape:connector-curvature="0"
       id="path3072"
       style="fill:#000000;fill-opacity:1;fill-rule:nonzero;stroke:none"
       d="m 779.895,481.145 c 1.485,-1.115 2.918,-2.189 4.396,-3.298 -1.227,-2.402 -2.932,-4.317 -5.153,-5.78 -2.901,-1.911 -6.134,-2.227 -9.474,-1.906 -2.346,0.224 -4.608,0.795 -6.572,2.182 -4.299,3.036 -6.225,7.278 -6.139,12.458 0.07,4.206 1.342,7.985 4.514,10.901 3.004,2.761 6.664,3.728 10.674,3.633 5.077,-0.121 8.999,-2.333 11.908,-6.489 -1.544,-1.094 -3.073,-2.176 -4.642,-3.288 -0.532,0.647 -1.011,1.335 -1.593,1.921 -2.76,2.783 -6.137,3.053 -9.595,1.91 -3.326,-1.099 -5.015,-3.761 -5.521,-7.151 -0.289,-1.935 -0.116,-3.853 0.682,-5.676 1.999,-4.566 6.119,-5.698 10.085,-4.867 2.674,0.56 4.576,2.268 5.962,4.576 0.153,0.255 0.282,0.525 0.468,0.874" /><path
       inkscape:connector-curvature="0"
       id="path3074"
       style="fill:#50c0db;fill-opacity:1;fill-rule:nonzero;stroke:none"
       d="m 452.918,294.334 c 3.513,10e-4 7.025,0.002 10.538,0.004 0.036,0 0.072,-0.007 0.128,-0.012 0,-0.832 0,-1.659 0,-2.511 -2.665,0 -5.321,0 -7.998,0 0,-0.816 0,-1.608 0,-2.428 1.602,0 3.202,0 4.82,0 0,-0.849 0,-1.67 0,-2.52 -1.597,0 -3.197,0 -4.827,0 0,-1.94 0,-3.851 0,-5.799 -0.908,0 -1.784,0 -2.661,0 0,4.422 0,8.844 0,13.266" /><path
       inkscape:connector-curvature="0"
       id="path3076"
       style="fill:#50c0db;fill-opacity:1;fill-rule:nonzero;stroke:none"
       d="m 481.738,281.093 c 0,4.416 0,8.816 0,13.234 0.091,0.004 0.171,0.011 0.251,0.011 2.44,0 4.88,0 7.32,0 0.939,10e-4 1.848,-0.134 2.651,-0.663 0.799,-0.525 1.317,-1.241 1.508,-2.2 0.163,-0.813 0.214,-1.621 0.02,-2.426 -0.27,-1.12 -1.009,-1.861 -2.011,-2.369 -0.138,-0.07 -0.283,-0.127 -0.457,-0.204 1.044,-1.792 2.084,-3.574 3.14,-5.386 -0.093,-0.009 -0.16,-0.021 -0.226,-0.021 -0.825,-0.001 -1.651,0.006 -2.477,-0.005 -0.18,-0.003 -0.277,0.055 -0.366,0.208 -0.918,1.573 -1.847,3.141 -2.764,4.715 -0.115,0.199 -0.241,0.272 -0.475,0.268 -1.054,-0.014 -2.109,-0.006 -3.164,-0.006 -0.099,0 -0.198,0 -0.318,0 0,-1.728 0,-3.43 0,-5.156 -0.885,0 -1.749,0 -2.632,0 z m 2.638,10.715 c 0,-1.015 0,-1.993 0,-2.97 0.041,-0.01 0.067,-0.023 0.092,-0.023 1.687,0.003 3.375,0.003 5.063,0.019 0.212,0.002 0.441,0.059 0.633,0.15 0.593,0.281 0.876,1.052 0.701,1.833 -0.13,0.58 -0.625,0.969 -1.298,0.976 -1.302,0.016 -2.605,0.012 -3.907,0.015 -0.421,0.001 -0.842,0 -1.284,0" /><path
       inkscape:connector-curvature="0"
       id="path3078"
       style="fill:#50c0db;fill-opacity:1;fill-rule:nonzero;stroke:none"
       d="m 478.445,287.868 c -0.016,-1.938 -0.52,-3.523 -1.695,-4.853 -1.253,-1.419 -2.858,-2.145 -4.731,-2.251 -2.243,-0.128 -4.166,0.604 -5.678,2.291 -0.886,0.989 -1.375,2.174 -1.556,3.484 -0.225,1.633 -0.024,3.202 0.783,4.657 0.962,1.734 2.448,2.816 4.367,3.23 2.438,0.527 4.649,0.009 6.488,-1.732 1.092,-1.035 1.704,-2.345 1.927,-3.831 0.059,-0.389 0.076,-0.784 0.095,-0.995 z m -2.707,-0.19 c 0.025,0.005 0.049,0.011 0.073,0.016 -0.122,0.569 -0.182,1.161 -0.378,1.703 -0.535,1.476 -1.625,2.361 -3.164,2.603 -1.628,0.255 -3.019,-0.249 -4.023,-1.591 -0.861,-1.15 -1.022,-2.478 -0.719,-3.846 0.735,-3.327 4.325,-4.016 6.452,-2.517 1.247,0.879 1.742,2.146 1.759,3.632" /><path
       inkscape:connector-curvature="0"
       id="path3080"
       style="fill:#50c0db;fill-opacity:1;fill-rule:nonzero;stroke:none"
       d="m 388,285 54,0 0,4 -54,0 0,-4 z" /><path
       inkscape:connector-curvature="0"
       id="path3082"
       style="fill:#50c0db;fill-opacity:1;fill-rule:nonzero;stroke:none"
       d="m 560,289 -18.881,0 c -0.835,3.622 -4.08,6.333 -7.953,6.333 -3.871,0 -7.116,-2.711 -7.951,-6.333 l -20.215,0 0,-4 20.301,0 c 0.953,-3.453 4.114,-6 7.865,-6 3.753,0 6.914,2.547 7.866,6 l 18.968,0 0,4 z m -26.834,-6 c -2.297,0 -4.166,1.869 -4.166,4.167 0,2.297 1.869,4.166 4.166,4.166 2.298,0 4.168,-1.869 4.168,-4.166 0,-2.298 -1.87,-4.167 -4.168,-4.167" /><path
       inkscape:connector-curvature="0"
       id="path3084"
       style="fill:#50c0db;fill-opacity:1;fill-rule:nonzero;stroke:none"
       d="m 708,285 54,0 0,4 -54,0 0,-4 z" /><path
       inkscape:connector-curvature="0"
       id="path3086"
       style="fill:#50c0db;fill-opacity:1;fill-rule:nonzero;stroke:none"
       d="m 880,289 -18.881,0 c -0.835,3.622 -4.08,6.333 -7.953,6.333 -3.871,0 -7.116,-2.711 -7.951,-6.333 l -20.215,0 0,-4 20.301,0 c 0.953,-3.453 4.114,-6 7.865,-6 3.753,0 6.914,2.547 7.866,6 l 18.968,0 0,4 z m -26.834,-6 c -2.297,0 -4.166,1.869 -4.166,4.167 0,2.297 1.869,4.166 4.166,4.166 2.298,0 4.168,-1.869 4.168,-4.166 0,-2.298 -1.87,-4.167 -4.168,-4.167" /><path
       inkscape:connector-curvature="0"
       id="path3088"
       style="fill:#50c0db;fill-opacity:1;fill-rule:nonzero;stroke:none"
       d="m 390.907,342.43 c 1.287,0.008 4.119,-0.012 4.119,-0.012 0,0 6.647,-9.341 8.926,-12.534 0.2,-0.28 0.416,-0.549 0.696,-0.918 0.354,0.486 0.652,0.891 0.945,1.3 2.734,3.816 8.696,12.198 8.696,12.198 0,0 2.975,0 4.024,0 0,-8.858 0,-17.625 0,-26.444 -1.698,0 -3.361,0 -5.157,0 0,5.326 0,10.669 0,16.011 -0.071,0.019 -0.143,0.039 -0.214,0.058 -2.74,-3.945 -5.479,-7.889 -8.306,-11.959 -2.807,4.039 -5.563,8.005 -8.469,12.187 0,-5.574 0,-10.892 0,-16.348 -1.812,0 -3.536,0 -5.26,0 0,8.82 0,17.641 0,26.461" /><path
       inkscape:connector-curvature="0"
       id="path3090"
       style="fill:#50c0db;fill-opacity:1;fill-rule:nonzero;stroke:none"
       d="m 525.609,315.969 c -1.92,0 -3.625,-0.032 -5.327,0.028 -0.319,0.011 -0.746,0.317 -0.921,0.608 -1.791,2.97 -3.554,5.958 -5.289,8.962 -0.323,0.559 -0.659,0.809 -1.337,0.793 -2.212,-0.05 -4.425,-0.019 -6.738,-0.019 0,-3.482 0,-6.875 0,-10.319 -1.786,0 -3.471,0 -5.199,0 0,8.813 0,17.579 0,26.386 0.202,0.022 0.356,0.053 0.509,0.053 5.213,-0.007 10.427,0.039 15.639,-0.047 2.72,-0.046 5.003,-1.144 6.479,-3.543 2.597,-4.224 0.863,-9.844 -3.643,-11.898 -0.114,-0.052 -0.22,-0.12 -0.436,-0.24 2.068,-3.553 4.121,-7.082 6.263,-10.764 z m -19.555,21.399 c 0,-1.998 0,-3.94 0,-5.945 3.152,0 6.238,-10e-4 9.325,0.002 0.353,0 0.71,-0.001 1.06,0.038 1.806,0.205 2.75,1.416 2.645,3.372 -0.086,1.613 -1.11,2.551 -2.884,2.565 -3.09,0.025 -6.18,0.017 -9.27,0.018 -0.281,0 -0.562,-0.031 -0.876,-0.05" /><path
       inkscape:connector-curvature="0"
       id="path3092"
       style="fill:#50c0db;fill-opacity:1;fill-rule:nonzero;stroke:none"
       d="m 548.88,315.347 c -7.963,0.001 -13.731,5.845 -13.713,13.894 0.017,7.957 5.831,13.788 13.739,13.777 7.852,-0.009 13.738,-5.957 13.708,-13.852 -0.03,-7.95 -5.864,-13.821 -13.734,-13.819 z m 8.327,13.295 c 0.016,3.487 -1.197,6.096 -3.325,7.656 -3.667,2.687 -8.855,1.995 -11.571,-1.543 -2.806,-3.655 -2.212,-9.755 1.295,-12.506 2.725,-2.138 5.778,-2.441 8.889,-0.999 3.305,1.534 4.603,4.389 4.712,7.392" /><path
       inkscape:connector-curvature="0"
       id="path3094"
       style="fill:#50c0db;fill-opacity:1;fill-rule:nonzero;stroke:none"
       d="m 436.364,337.426 c 0,-1.638 0,-3.17 0,-4.806 3.199,0 6.398,0 9.663,0 0,-1.725 0,-3.347 0,-5.046 -3.211,0 -6.384,0 -9.634,0 0,-2.204 0,-4.334 0,-6.56 5.628,0 11.241,0 16.915,0 0,-1.714 0,-3.331 0,-4.997 -7.399,0 -14.752,0 -22.165,0 0,8.788 0,17.552 0,26.382 7.039,0 14.065,0 21.157,0 0,-1.626 0,-3.246 0,-4.973 -5.311,0 -10.6,0 -15.936,0" /><path
       inkscape:connector-curvature="0"
       id="path3096"
       style="fill:#50c0db;fill-opacity:1;fill-rule:nonzero;stroke:none"
       d="m 489.326,342.385 c 0,-1.678 0,-3.274 0,-4.953 -3.382,0 -6.715,0 -10.155,0 0,-7.176 0,-14.269 0,-21.412 -1.767,0 -3.43,0 -5.201,0 0,7.074 0,14.166 0,21.376 -3.463,0 -6.82,0 -10.223,0 0,1.716 0,3.313 0,4.989 8.506,0 17.01,0 25.579,0" /><path
       inkscape:connector-curvature="0"
       id="path3098"
       style="fill:#50c0db;fill-opacity:1;fill-rule:nonzero;stroke:none"
       d="m 387.73,233.584 c 0.293,0.633 0.575,1.271 0.882,1.898 4.176,8.52 8.358,17.037 12.524,25.563 0.187,0.385 0.397,0.52 0.815,0.507 0.987,-0.029 1.976,-0.038 2.962,0.003 0.483,0.02 0.728,-0.13 0.946,-0.573 4.426,-8.989 8.871,-17.969 13.312,-26.95 0.076,-0.152 0.162,-0.299 0.243,-0.448 -2.051,0 -4.103,0 -6.154,0 -1.066,2.153 -2.142,4.3 -3.187,6.463 -0.179,0.37 -0.393,0.471 -0.781,0.47 -3.869,-0.013 -7.738,-0.02 -11.608,0.007 -0.467,0.003 -0.652,-0.176 -0.831,-0.553 -1.015,-2.134 -2.052,-4.259 -3.082,-6.387 -2.014,0 -4.027,0 -6.041,0 z m 15.722,19.731 c -1.257,-2.547 -2.454,-4.976 -3.679,-7.457 2.511,0 4.923,0 7.409,0 -1.245,2.488 -2.459,4.916 -3.73,7.457" /><path
       inkscape:connector-curvature="0"
       id="path3100"
       style="fill:#50c0db;fill-opacity:1;fill-rule:nonzero;stroke:none"
       d="m 465.694,233.584 c 0,9.297 0,18.593 0,27.925 1.865,0 3.68,0 5.561,0 0,-7.499 0,-15.002 0,-22.555 15.21,0 1.55,0 16.777,0 0,-1.823 0,-3.596 0,-5.37 -7.446,0 -14.892,0 -22.338,0" /><path
       inkscape:connector-curvature="0"
       id="path3102"
       style="fill:#50c0db;fill-opacity:1;fill-rule:nonzero;stroke:none"
       d="m 536.995,233.584 c 0,9.297 0,18.593 0,27.925 1.866,0 3.68,0 5.561,0 0,-7.499 0,-15.002 0,-22.555 5.599,0 11.133,0 16.777,0 0,-1.823 0,-3.596 0,-5.37 -7.445,0 -14.892,0 -22.338,0" /><path
       inkscape:connector-curvature="0"
       id="path3104"
       style="fill:#50c0db;fill-opacity:1;fill-rule:nonzero;stroke:none"
       d="m 709.972,343.623 c 1.358,0.008 4.347,-0.013 4.347,-0.013 0,0 7.015,-9.858 9.421,-13.228 0.211,-0.296 0.438,-0.579 0.734,-0.969 0.373,0.513 0.688,0.941 0.997,1.372 2.886,4.028 9.178,12.874 9.178,12.874 0,0 3.14,0 4.246,0 0,-9.349 0,-18.602 0,-27.908 -1.791,0 -3.547,0 -5.442,0 0,5.62 0,11.259 0,16.897 -0.076,0.02 -0.151,0.041 -0.226,0.061 -2.891,-4.163 -5.783,-8.326 -8.766,-12.621 -2.962,4.263 -5.871,8.448 -8.938,12.862 0,-5.883 0,-11.495 0,-17.254 -1.912,0 -3.732,0 -5.551,0 0,9.309 0,18.618 0,27.927" /><path
       inkscape:connector-curvature="0"
       id="path3106"
       style="fill:#50c0db;fill-opacity:1;fill-rule:nonzero;stroke:none"
       d="m 777.616,294.593 c 0.922,-2.113 1.843,-4.225 2.764,-6.338 0.622,-1.427 1.245,-2.853 1.86,-4.284 0.073,-0.171 0.163,-0.241 0.354,-0.236 0.568,0.012 1.136,0.004 1.72,0.004 0,-1.838 0,-3.644 0,-5.469 -0.725,0 -1.44,0 -2.187,0 0,0.985 0,1.97 0,2.971 -3.55,0 -7.068,0 -10.619,0 0,-0.98 0,-1.964 0,-2.985 -0.768,0 -1.504,0 -2.24,0 0,1.822 0,3.644 0,5.465 0.539,0.006 1.08,0.034 1.618,0.009 0.302,-0.013 0.43,0.093 0.546,0.363 1.197,2.796 2.411,5.586 3.616,8.379 0.304,0.703 0.591,1.414 0.887,2.121 0.56,0 1.121,0 1.681,0 z m -0.82,-4.195 c -0.899,-2.248 -1.775,-4.439 -2.655,-6.639 1.792,0 3.546,0 5.334,0 -0.891,2.209 -1.771,4.389 -2.679,6.639" /><path
       inkscape:connector-curvature="0"
       id="path3108"
       style="fill:#50c0db;fill-opacity:1;fill-rule:nonzero;stroke:none"
       d="m 816.212,294.593 c 0.008,-0.11 0.021,-0.22 0.021,-0.329 0.001,-4.224 0.001,-8.448 0.001,-12.671 0,-0.099 0,-0.198 0,-0.315 -0.878,0 -1.734,0 -2.624,0 0,1.761 0,3.516 0,5.29 -0.12,0.007 -0.207,0.018 -0.294,0.018 -0.951,10e-4 -1.902,-0.007 -2.852,0.006 -0.21,0.003 -0.321,-0.072 -0.427,-0.244 -1.703,-2.754 -1.626,-2.602 -3.005,-4.839 -0.112,-0.182 -0.225,-0.259 -0.445,-0.256 -0.92,0.014 -1.841,0.006 -2.825,0.006 1.181,1.866 2.339,3.697 3.469,5.483 -0.55,0.26 -1.102,0.468 -1.6,0.767 -0.758,0.456 -1.25,1.128 -1.425,2.019 -0.194,0.987 -0.18,1.969 0.245,2.88 0.585,1.254 1.669,1.865 3.003,2.065 0.413,0.062 0.834,0.081 1.25,0.12 2.503,0 5.005,0 7.508,0 z m -2.623,-2.533 c -0.085,0.006 -0.144,0.015 -0.203,0.015 -1.631,0 -3.261,0.001 -4.891,-0.005 -0.208,-10e-4 -0.42,-0.023 -0.624,-0.064 -0.57,-0.115 -0.972,-0.529 -1.07,-1.078 -0.118,-0.66 0.116,-1.262 0.623,-1.568 0.427,-0.258 0.907,-0.291 1.389,-0.292 1.51,-0.003 3.021,-0.002 4.531,0 0.077,0 0.154,0.01 0.245,0.017 0,0.992 0,1.969 0,2.975" /><path
       inkscape:connector-curvature="0"
       id="path3110"
       style="fill:#50c0db;fill-opacity:1;fill-rule:nonzero;stroke:none"
       d="m 794.872,294.593 c 1.401,-3.092 2.801,-6.183 4.202,-9.275 0.544,-1.2 1.087,-2.401 1.63,-3.602 0.06,-0.134 0.119,-0.27 0.201,-0.457 -0.281,0 -0.525,0 -0.768,0 -0.61,0 -1.221,0.009 -1.832,-0.005 -0.209,-0.005 -0.309,0.059 -0.395,0.257 -1.295,2.985 -2.599,5.966 -3.903,8.948 -0.034,0.079 -0.077,0.154 -0.134,0.27 -0.398,-0.927 -0.78,-1.816 -1.161,-2.705 -0.928,-2.166 -1.858,-4.331 -2.778,-6.5 -0.087,-0.207 -0.191,-0.276 -0.417,-0.272 -0.848,0.016 -1.697,0.007 -2.589,0.007 0.312,0.694 0.61,1.356 0.906,2.018 1.672,3.725 3.344,7.45 5.015,11.175 0.02,0.044 0.028,0.094 0.041,0.141 0.661,0 1.321,0 1.982,0" /><path
       inkscape:connector-curvature="0"
       id="path3112"
       style="fill:#50c0db;fill-opacity:1;fill-rule:nonzero;stroke:none"
       d="m 883.328,329.113 c -0.183,-1.081 -0.298,-2.177 -0.559,-3.238 -1.828,-7.43 -8.758,-11.958 -16.412,-10.686 -5.86,0.975 -9.933,4.256 -11.51,10.002 -1.601,5.835 -0.623,11.301 4.112,15.473 4.542,4.002 9.891,4.675 15.434,2.504 5.343,-2.093 8.121,-6.302 8.759,-11.961 0.039,-0.345 0.116,-0.685 0.176,-1.027 0,-0.356 0,-0.712 0,-1.067 z m -23.442,0.326 c 0.08,-2.959 1.12,-5.728 3.889,-7.603 3.638,-2.464 8.713,-1.766 11.595,1.545 2.909,3.342 2.885,9.283 -0.05,12.582 -2.455,2.757 -6.328,3.683 -9.817,2.348 -3.481,-1.333 -5.606,-4.59 -5.617,-8.872" /><path
       inkscape:connector-curvature="0"
       id="path3114"
       style="fill:#50c0db;fill-opacity:1;fill-rule:nonzero;stroke:none"
       d="m 757.002,327.9 c 0,-2.331 0,-4.523 0,-6.893 2.983,0 5.987,0 8.99,0 2.976,0 5.951,0 8.978,0 0,-1.814 0,-3.505 0,-5.268 -7.836,0 -15.638,0 -23.511,0 0,9.264 0,18.525 0,27.877 7.443,0 14.886,0 22.419,0 0,-1.698 0,-3.414 0,-5.243 -5.601,0 -11.202,0 -16.868,0 0,-1.734 0,-3.357 0,-5.116 3.368,0 6.76,0 10.211,0 0,-1.828 0,-3.523 0,-5.357 -3.39,0 -6.776,0 -10.219,0" /><path
       inkscape:connector-curvature="0"
       id="path3116"
       style="fill:#50c0db;fill-opacity:1;fill-rule:nonzero;stroke:none"
       d="m 826.218,326.395 c 0,-3.609 0,-7.081 0,-10.64 -1.902,0 -3.72,0 -5.6,0 0,9.281 0,18.543 0,27.833 0.17,0.043 0.302,0.106 0.434,0.106 5.652,-0.015 11.307,0.047 16.956,-0.085 3.817,-0.089 6.814,-2.681 7.566,-6.198 0.831,-3.884 -0.622,-7.874 -3.553,-9.704 -1.654,-1.033 -3.507,-1.303 -5.412,-1.309 -3.41,-0.01 -6.82,-0.003 -10.391,-0.003 z m 0.034,5.493 c 3.678,0 7.231,-0.004 10.783,0.008 0.277,0 0.558,0.093 0.83,0.171 1.492,0.428 2.358,1.866 2.162,3.578 -0.185,1.623 -1.157,2.623 -2.78,2.653 -3.271,0.062 -6.543,0.047 -9.815,0.059 -0.378,10e-4 -0.757,-0.031 -1.18,-0.05 0,-2.174 0,-4.255 0,-6.419" /><path
       inkscape:connector-curvature="0"
       id="path3118"
       style="fill:#50c0db;fill-opacity:1;fill-rule:nonzero;stroke:none"
       d="m 811.122,343.616 c 0,-1.743 0,-3.434 0,-5.238 -3.568,0 -7.105,0 -10.738,0 0,-7.597 0,-15.081 0,-22.638 -1.885,0 -3.675,0 -5.565,0 0,7.496 0,14.978 0,22.589 -3.627,0 -7.157,0 -10.754,0 0,1.817 0,3.507 0,5.287 8.987,0 17.955,0 27.057,0" /><path
       inkscape:connector-curvature="0"
       id="path3120"
       style="fill:#50c0db;fill-opacity:1;fill-rule:nonzero;stroke:none"
       d="m 710.521,258.739 c 5.057,-0.01 10.115,0.037 15.17,-0.06 1.802,-0.035 3.67,-0.175 5.384,-0.684 5.153,-1.529 6.455,-7.706 2.532,-11.561 0.015,-0.041 0.02,-0.112 0.05,-0.124 4.761,-1.968 5.379,-9.759 1.339,-13.354 -1.478,-1.315 -3.155,-1.974 -5.069,-2.14 -1.028,-0.09 -2.061,-0.153 -3.093,-0.156 -5.438,-0.015 -10.875,-0.007 -16.313,-0.007 0,9.362 0,18.724 0,28.086 z m 5.725,-22.929 c 0.245,-0.015 0.405,-0.035 0.565,-0.034 3.916,0.031 7.832,0.043 11.748,0.103 2.043,0.032 3.255,1.305 3.362,3.417 0.106,2.092 -0.905,3.487 -3.017,3.569 -4.179,0.162 -8.366,0.107 -12.551,0.14 -0.021,0 -0.042,-0.032 -0.107,-0.085 0,-2.32 0,-4.676 0,-7.11 z m 0.007,17.739 c 0,-1.858 0,-3.585 0,-5.353 0.202,-0.017 0.36,-0.041 0.518,-0.041 3.262,-0.002 6.524,-0.01 9.785,0.008 0.566,0.003 1.142,0.072 1.695,0.196 1.281,0.288 1.977,1.252 1.96,2.625 -0.018,1.416 -0.532,2.076 -1.952,2.38 -0.578,0.124 -1.181,0.172 -1.774,0.177 -2.147,0.021 -4.294,0.008 -6.442,0.008 -1.244,0 -2.489,0 -3.79,0" /><path
       inkscape:connector-curvature="0"
       id="path3122"
       style="fill:#50c0db;fill-opacity:1;fill-rule:nonzero;stroke:none"
       d="m 806.67,230.799 c 0,9.311 0,18.58 0,27.92 7.454,0 14.914,0 22.437,0 0,-1.722 0,-3.447 0,-5.27 -5.597,0 -11.211,0 -16.871,0 0,-1.742 0,-3.387 0,-5.127 3.421,0 6.806,0 10.241,0 0,-1.819 0,-3.543 0,-5.348 -3.427,0 -6.813,0 -10.238,0 0,-2.321 0,-4.563 0,-6.869 5.999,0 11.947,0 17.954,0 0,-1.789 0,-3.515 0,-5.306 -7.798,0 -15.616,0 -23.523,0" /><path
       inkscape:connector-curvature="0"
       id="path3124"
       style="fill:#50c0db;fill-opacity:1;fill-rule:nonzero;stroke:none"
       d="m 851.111,231.193 c 3.881,4.781 7.643,9.417 11.423,14.075 -3.756,4.635 -7.478,9.228 -11.323,13.973 2.387,0 4.576,0.02 6.764,-0.027 0.243,-0.005 0.515,-0.352 0.712,-0.591 2.281,-2.771 4.549,-5.553 6.822,-8.33 0.153,-0.187 0.313,-0.367 0.527,-0.617 1.524,1.861 3.016,3.679 4.505,5.5 0.999,1.22 1.989,2.449 2.997,3.661 0.144,0.172 0.371,0.388 0.562,0.391 2.163,0.027 4.327,0.017 6.691,0.017 -3.839,-4.685 -7.551,-9.216 -11.321,-13.818 3.841,-4.701 7.672,-9.389 11.575,-14.164 -0.29,-0.03 -0.487,-0.068 -0.684,-0.068 -1.959,-0.005 -3.918,-0.024 -5.876,0.018 -0.317,0.006 -0.726,0.206 -0.929,0.451 -2.542,3.083 -5.053,6.19 -7.633,9.366 -1.384,-1.691 -2.733,-3.34 -4.082,-4.989 -1.205,-1.473 -2.402,-2.953 -3.625,-4.411 -0.168,-0.201 -0.464,-0.415 -0.704,-0.419 -2.066,-0.032 -4.132,-0.018 -6.401,-0.018" /><path
       inkscape:connector-curvature="0"
       id="path3126"
       style="fill:#50c0db;fill-opacity:1;fill-rule:nonzero;stroke:none"
       d="m 779.895,241.145 c 1.485,-1.115 2.918,-2.189 4.396,-3.298 -1.227,-2.402 -2.932,-4.317 -5.153,-5.78 -2.901,-1.911 -6.134,-2.227 -9.474,-1.906 -2.346,0.224 -4.608,0.795 -6.572,2.182 -4.299,3.036 -6.225,7.278 -6.139,12.458 0.07,4.206 1.342,7.985 4.514,10.901 3.004,2.761 6.664,3.728 10.674,3.633 5.077,-0.121 8.999,-2.333 11.908,-6.489 -1.544,-1.094 -3.073,-2.176 -4.642,-3.288 -0.532,0.647 -1.011,1.335 -1.593,1.921 -2.76,2.783 -6.137,3.053 -9.595,1.91 -3.326,-1.099 -5.015,-3.761 -5.521,-7.151 -0.289,-1.935 -0.116,-3.853 0.682,-5.676 1.999,-4.566 6.119,-5.698 10.085,-4.867 2.674,0.56 4.576,2.268 5.962,4.576 0.153,0.255 0.282,0.524 0.468,0.874" /></g></svg>