<?xml version="1.0" encoding="UTF-8" standalone="no"?>
<svg
   xmlns:dc="http://purl.org/dc/elements/1.1/"
   xmlns:cc="http://creativecommons.org/ns#"
   xmlns:rdf="http://www.w3.org/1999/02/22-rdf-syntax-ns#"
   xmlns:svg="http://www.w3.org/2000/svg"
   xmlns="http://www.w3.org/2000/svg"
   xmlns:sodipodi="http://sodipodi.sourceforge.net/DTD/sodipodi-0.dtd"
   xmlns:inkscape="http://www.inkscape.org/namespaces/inkscape"
   width="170.18605"
   height="170.18605"
   id="svg2178"
   sodipodi:version="0.32"
   inkscape:version="0.48.5 r10040"
   inkscape:output_extension="org.inkscape.output.emf.win32"
   sodipodi:docname="metro.svg"
   sodipodi:modified="true"
   version="1.1">
  <metadata
     id="metadata2215">
    <rdf:RDF>
      <cc:Work
         rdf:about="">
        <dc:format>image/svg+xml</dc:format>
        <dc:type
           rdf:resource="http://purl.org/dc/dcmitype/StillImage" />
      </cc:Work>
    </rdf:RDF>
  </metadata>
  <defs
     id="defs2213" />
  <sodipodi:namedview
     inkscape:window-height="705"
     inkscape:window-width="1366"
     inkscape:pageshadow="2"
     inkscape:pageopacity="0.0"
     guidetolerance="10.0"
     gridtolerance="10.0"
     objecttolerance="10.0"
     borderopacity="1.0"
     bordercolor="#666666"
     pagecolor="#ffffff"
     id="base"
     inkscape:zoom="2.8284272"
     inkscape:cx="126.55301"
     inkscape:cy="83.804113"
     inkscape:window-x="-4"
     inkscape:window-y="-4"
     inkscape:current-layer="svg2178"
     showgrid="false"
     inkscape:window-maximized="1"
     fit-margin-top="0"
     fit-margin-left="0"
     fit-margin-right="0"
     fit-margin-bottom="0">
    <inkscape:grid
       type="xygrid"
       id="grid2998"
       empspacing="5"
       visible="true"
       enabled="true"
       snapvisiblegridlinesonly="true"
       originx="0.093003139px"
       originy="0.093021154px" />
  </sodipodi:namedview>
  <g
     id="g3784"
     transform="translate(0.09300314,0.1205791)">
    <path
       id="path2180"
       d="m 144.66405,25.308397 -2.06217,-1.999676 -1.99967,-1.812206 -2.06217,-1.812206 -1.99967,-1.624737 -2.12466,-1.624736 -2.12466,-1.499757 -2.18714,-1.499757 -2.12466,-1.312287 -2.31212,-1.374777 L 123.41749,9.56095 121.10537,8.3736425 118.85573,7.3738046 116.48112,6.3739667 114.1065,5.4991085 111.6694,4.6867402 109.29478,3.9993517 106.35776,3.1869833 103.42073,2.4995948 100.42122,1.8746961 97.421707,1.437267 94.297213,0.99983791 91.23521,0.8123683 88.110716,0.6248987 l -3.124493,0 -2.249636,0 L 78.987195,0.74987844 75.362783,1.0623278 71.80086,1.4997569 68.363917,2.1246556 62.3024,3.4369428 56.490842,5.249149 50.804264,7.4362945 48.05471,8.7485817 l -2.687065,1.4372673 -5.311639,3.062003 -2.624574,1.687227 -2.499595,1.874696 -2.499595,1.937186 -2.437105,2.062166 -2.374615,2.187145 -2.312125,2.312125 -2.749554,2.749554 -2.562085,2.874534 -2.374615,2.937024 -2.187145,3.062004 -2.124656,2.999514 -1.937186,3.186983 -1.7497161,3.186983 -1.5622467,3.311963 -1.4997569,3.249474 -1.3122873,3.436942 -1.1248176,3.436943 -0.9373481,3.561923 -0.8123683,3.561922 -0.6873885,3.686903 -0.499919,3.686902 -0.31244933,3.811882 -0.24995947,4.68674 0,2.249636 0.0624899,4.56176 0.3749392,4.499271 0.4999189,4.374291 0.8123683,4.311805 0.499919,2.4371 0.6248987,2.4996 0.6248987,2.37461 0.8123683,2.43711 0.8123683,2.31212 0.937348,2.37462 0.9373481,2.24963 1.1248176,2.31213 1.0623278,2.18714 1.2497975,2.24964 1.249797,2.12465 1.374777,2.18715 1.374778,2.06216 1.562246,2.12466 3.311963,4.12433 1.937186,2.24964 2.124656,2.31212 1.312287,1.31229 4.061842,3.87437 2.124655,1.81221 2.187146,1.74971 2.187145,1.62474 2.249635,1.56225 2.249636,1.49975 2.374615,1.43727 2.312125,1.31229 2.374615,1.24979 2.374615,1.12482 2.499595,1.12482 2.437105,0.93735 2.562084,0.93735 5.18666,1.62473 2.624574,0.6249 2.687064,0.56241 5.561599,0.87486 2.812044,0.31245 2.874534,0.24996 2.874534,0.12498 2.999514,0.0625 0.06249,0 1.124817,-0.0625 1.187308,0 2.374615,-0.0625 4.62425,-0.37494 2.249636,-0.31245 2.312125,-0.24996 4.499266,-0.74988 1.37478,-0.37494 0.31245,-0.12498 0.37494,-0.0625 0.74988,-0.12498 2.87453,-0.81237 2.81205,-0.87485 1.37477,-0.49992 0.68739,-0.24996 0.74988,-0.18747 2.68707,-1.12482 1.31228,-0.6249 1.37478,-0.56241 2.62457,-1.31229 0.6249,-0.37493 0.31245,-0.18747 0.37494,-0.12498 1.37478,-0.6249 2.49959,-1.56225 2.4996,-1.56225 1.18731,-0.87485 1.24979,-0.81237 2.4996,-1.74972 2.37461,-1.93718 2.37462,-1.93719 1.12482,-1.06233 1.1873,-0.99984 2.31213,-2.12465 1.2498,-1.31229 2.06216,-2.24963 1.99968,-2.24964 2.62457,-3.37445 1.2498,-1.74972 1.2498,-1.68723 2.24963,-3.49943 0.49992,-0.93735 0.56241,-0.87485 1.06233,-1.74972 0.93735,-1.8747 0.18746,-0.49992 0.24996,-0.43742 0.49992,-0.87486 0.81237,-1.8747 0.87486,-1.81221 0.74988,-1.93718 0.74988,-1.8747 1.31228,-3.87437 0.81237,-2.99951 0.68739,-2.99952 0.24996,-1.56224 0.31245,-1.49976 0.24996,-1.562247 0.31245,-1.499757 0.12498,-1.624737 0,-0.437429 0.0625,-0.374939 0.12498,-0.749878 0.12498,-1.624737 0,-0.437429 0.0625,-0.374939 0.12498,-0.749879 0.18747,-3.249473 0,-1.624737 0,-0.812368 0.0625,-0.749878 0,-0.06249 -0.12498,-4.249311 -0.24996,-4.061842 -0.49992,-4.061841 -0.56241,-3.874372 -0.68739,-3.124494 -0.68739,-2.999514 -0.87486,-2.999513 -0.93734,-2.874534 -1.06233,-2.874534 -1.18731,-2.812044 -1.31229,-2.812045 -1.31228,-2.687064 -1.56225,-2.749554 -1.62474,-2.624575 -1.74971,-2.624574 -1.81221,-2.499595 -1.93719,-2.499595 -2.06216,-2.437105 -2.18715,-2.437105 -2.24963,-2.312125 z m -48.117201,68.301428 -5.374129,0.06249 -5.936538,6.561435 -0.312449,-0.312449 -0.31245,0.312449 -5.936537,-6.561435 -5.374129,-0.06249 -15.185038,33.182125 -39.993517,0 39.056169,-98.671509 27.745502,40.243476 27.807987,-40.243476 38.99368,98.671509 -39.93102,0 -15.247531,-33.182125 z"
       style="fill:#acbaac;fill-opacity:1;fill-rule:nonzero;stroke:none"
       inkscape:connector-curvature="0" />
    <path
       id="path2182"
       d="M 96.546849,93.609825 84.923733,68.363917 73.300617,93.609825 l 5.374129,0.06249 5.936537,6.561435 0.31245,-0.312449 0.312449,0.312449 5.936538,-6.561435 z"
       style="fill:#04562c;fill-opacity:1;fill-rule:nonzero;stroke:none"
       inkscape:connector-curvature="0" />
    <path
       id="path2184"
       d="m 96.546849,93.609825 15.247531,33.182125 39.93102,0 -38.99368,-98.671509 -27.807987,40.243476 z"
       style="fill:#04562c;fill-opacity:1;fill-rule:nonzero;stroke:none"
       inkscape:connector-curvature="0" />
    <path
       id="path2186"
       d="M 84.923733,68.363917 57.178231,28.120441 18.122062,126.79195 l 39.993517,0 15.185038,-33.182125 z"
       style="fill:#04562c;fill-opacity:1;fill-rule:nonzero;stroke:none"
       inkscape:connector-curvature="0" />
    <path
       id="path2190"
       d="m 84.594372,100.12687 0.330503,0.35712 0.326141,-0.3619"
       style="fill:none;stroke:#ffffff;stroke-width:1.37428796px;stroke-linecap:round;stroke-linejoin:round;stroke-opacity:1;stroke-dasharray:none"
       inkscape:connector-curvature="0" />
    <path
       id="path2192"
       d="m 96.546849,93.609825 -5.374129,0.06249 -5.936538,6.561435"
       style="fill:none;stroke:#ffffff;stroke-width:1.24979734px;stroke-linecap:round;stroke-linejoin:round;stroke-opacity:1;stroke-dasharray:none"
       inkscape:connector-curvature="0" />
    <path
       id="path2194"
       d="m 73.300617,93.609825 5.374129,0.06249 5.936537,6.561435"
       style="fill:none;stroke:#ffffff;stroke-width:1.24979734px;stroke-linecap:round;stroke-linejoin:round;stroke-opacity:1;stroke-dasharray:none"
       inkscape:connector-curvature="0" />
    <path
       id="path2196"
       d="M 84.923733,68.363917 96.546849,93.609825"
       style="fill:none;stroke:#ffffff;stroke-width:1.24979734px;stroke-linecap:round;stroke-linejoin:round;stroke-opacity:1;stroke-dasharray:none"
       inkscape:connector-curvature="0" />
    <path
       id="path2198"
       d="M 84.923733,68.363917 73.300617,93.609825"
       style="fill:none;stroke:#ffffff;stroke-width:1.24979734px;stroke-linecap:round;stroke-linejoin:round;stroke-opacity:1;stroke-dasharray:none"
       inkscape:connector-curvature="0" />
    <path
       id="path2200"
       d="M 18.122062,126.79195 57.178231,28.120441 84.923733,68.363917"
       style="fill:none;stroke:#ffffff;stroke-width:1.24979734px;stroke-linecap:round;stroke-linejoin:round;stroke-opacity:1;stroke-dasharray:none"
       inkscape:connector-curvature="0" />
    <path
       id="path2202"
       d="m 58.115579,126.79195 -39.993517,0"
       style="fill:none;stroke:#ffffff;stroke-width:1.24979734px;stroke-linecap:round;stroke-linejoin:round;stroke-opacity:1;stroke-dasharray:none"
       inkscape:connector-curvature="0" />
    <path
       id="path2204"
       d="m 111.79438,126.79195 39.93102,0"
       style="fill:none;stroke:#ffffff;stroke-width:1.24979734px;stroke-linecap:round;stroke-linejoin:round;stroke-opacity:1;stroke-dasharray:none"
       inkscape:connector-curvature="0" />
    <path
       id="path2206"
       d="M 151.7254,126.79195 112.73172,28.120441 84.923733,68.363917"
       style="fill:none;stroke:#ffffff;stroke-width:1.24979734px;stroke-linecap:round;stroke-linejoin:round;stroke-opacity:1;stroke-dasharray:none"
       inkscape:connector-curvature="0" />
    <path
       id="path2208"
       d="M 96.546849,93.609825 111.79438,126.79195"
       style="fill:none;stroke:#ffffff;stroke-width:1.24979734px;stroke-linecap:round;stroke-linejoin:round;stroke-opacity:1;stroke-dasharray:none"
       inkscape:connector-curvature="0" />
    <path
       id="path2210"
       d="M 73.300617,93.609825 58.115579,126.79195"
       style="fill:none;stroke:#ffffff;stroke-width:1.24979734px;stroke-linecap:round;stroke-linejoin:round;stroke-opacity:1;stroke-dasharray:none"
       inkscape:connector-curvature="0" />
    <path
       transform="matrix(2.7347325,0,0,2.6485991,-578.17261,-21.560683)"
       d="m 273.25,40.222443 c 0,17.53504 -13.76724,31.75 -30.75,31.75 -16.98276,0 -30.75,-14.21496 -30.75,-31.75 0,-17.535041 13.76724,-31.7500004 30.75,-31.7500004 16.98276,0 30.75,14.2149594 30.75,31.7500004 z"
       sodipodi:ry="31.75"
       sodipodi:rx="30.75"
       sodipodi:cy="40.222443"
       sodipodi:cx="242.5"
       id="path5139"
       style="fill:none;stroke:#04562c;stroke-width:0.74312943;stroke-linecap:round;stroke-linejoin:round;stroke-miterlimit:4;stroke-opacity:1;stroke-dasharray:none;stroke-dashoffset:0"
       sodipodi:type="arc" />
  </g>
</svg>
