<?xml version="1.0" encoding="UTF-8" standalone="no"?>
<!-- Generator: Adobe Illustrator 17.0.0, SVG Export Plug-In . SVG Version: 6.00 Build 0)  -->

<svg
   xmlns:dc="http://purl.org/dc/elements/1.1/"
   xmlns:cc="http://creativecommons.org/ns#"
   xmlns:rdf="http://www.w3.org/1999/02/22-rdf-syntax-ns#"
   xmlns:svg="http://www.w3.org/2000/svg"
   xmlns="http://www.w3.org/2000/svg"
   xmlns:xlink="http://www.w3.org/1999/xlink"
   xmlns:sodipodi="http://sodipodi.sourceforge.net/DTD/sodipodi-0.dtd"
   xmlns:inkscape="http://www.inkscape.org/namespaces/inkscape"
   version="1.1"
   id="Слой_1"
   x="0px"
   y="0px"
   width="90px"
   height="90px"
   viewBox="0 0 90 90"
   enable-background="new 0 0 90 90"
   xml:space="preserve"
   inkscape:version="0.48.4 r9939"
   sodipodi:docname="appIcon.svg"
   inkscape:export-filename="/home/bishop/work/projects/android/metro4all/art/v2/mobileappIcon.png"
   inkscape:export-xdpi="256"
   inkscape:export-ydpi="256"><metadata
     id="metadata23"><rdf:RDF><cc:Work
         rdf:about=""><dc:format>image/svg+xml</dc:format><dc:type
           rdf:resource="http://purl.org/dc/dcmitype/StillImage" /><dc:title></dc:title></cc:Work></rdf:RDF></metadata><defs
     id="defs21" /><sodipodi:namedview
     pagecolor="#ffffff"
     bordercolor="#666666"
     borderopacity="1"
     objecttolerance="10"
     gridtolerance="10"
     guidetolerance="10"
     inkscape:pageopacity="0"
     inkscape:pageshadow="2"
     inkscape:window-width="1543"
     inkscape:window-height="876"
     id="namedview19"
     showgrid="false"
     inkscape:zoom="3.7083822"
     inkscape:cx="79.625497"
     inkscape:cy="43.49447"
     inkscape:window-x="57"
     inkscape:window-y="24"
     inkscape:window-maximized="1"
     inkscape:current-layer="Слой_1" /><path
     fill="#31B7DA"
     d="M90,68.472c0,2.761-1.754,5.881-5,7.117s-31.5,12.39-35.333,13.528s-5.343,1.217-8.501,0  C38.008,87.9,7.701,76.954,5.057,75.588s-5-4.355-5-7.117V5c0-2.761,2.239-5,5-5H85c2.761,0,5,2.239,5,5V68.472z"
     id="path3" /><g
     id="g11"><defs
       id="defs13"><rect
         id="SVGID_1_"
         x="0"
         y="0"
         width="90"
         height="90" /></defs><clipPath
       id="SVGID_2_"><use
         xlink:href="#SVGID_1_"
         overflow="visible"
         id="use17" /></clipPath></g><path
     inkscape:connector-curvature="0"
     id="path3082"
     style="fill:#ffffff;fill-opacity:1;fill-rule:nonzero;stroke:none"
     d="m 77.944807,62.351776 -22.599744,0 c -0.999464,-4.335052 -4.883567,-7.580177 -9.519394,-7.580177 -4.633404,0 -8.517525,3.245125 -9.516999,7.580177 l -24.196478,0 3.5e-5,4.788024 24.299419,0 c 1.140678,4.132748 4.924212,7.181646 9.414006,7.181646 4.492181,-8.7e-5 8.275792,-3.048898 9.415281,-7.181646 l 22.703874,0 0,-4.788024 z m -32.119121,7.181646 c -2.749399,0 -4.986518,-2.237161 -4.986518,-4.987551 -2.6e-5,-2.749521 2.237109,-4.986508 4.986501,-4.986508 2.750606,0 4.988931,2.236987 4.988922,4.986595 9e-6,2.750303 -2.238306,4.987464 -4.988905,4.987464" /><path
     inkscape:connector-curvature="0"
     id="path3088"
     style="fill:#ffffff;fill-opacity:1;fill-rule:nonzero;stroke:none"
     d="m 22.719625,8.911516 c 2.09528,-0.024 6.70586,0.024 6.70586,0.024 0,0 10.8215,15.2073 14.53178,20.4055 0.325609,0.4561 0.677259,0.894 1.133099,1.4947 0.576321,-0.7912 1.061481,-1.4507 1.538491,-2.1164 4.45103,-6.2126 14.15734,-19.8589 14.15734,-19.8589 0,0 4.843379,0 6.55118,0 0,14.4213 0,28.694202 0,43.051662 -2.764391,0 -5.4718,0 -8.395741,0 0,-8.67079 0,-17.369462 0,-26.066362 -0.115589,-0.031 -0.23281,-0.063 -0.348399,-0.095 -4.4608,6.4227 -8.91997,12.843702 -13.5224,19.469562 -4.56988,-6.57536 -9.05672,-13.032262 -13.78777,-19.840762 0,9.0746 0,17.732572 0,26.615062 -2.94999,0 -5.75671,0 -8.56344,0 0,-14.35926 0,-28.719962 0,-43.079162" /></svg>