<?xml version="1.0" encoding="utf-8"?>
<!-- Generator: Adobe Illustrator 17.0.0, SVG Export Plug-In . SVG Version: 6.00 Build 0)  -->
<!DOCTYPE svg PUBLIC "-//W3C//DTD SVG 1.1//EN" "http://www.w3.org/Graphics/SVG/1.1/DTD/svg11.dtd">
<svg version="1.1" id="Слой_1" xmlns="http://www.w3.org/2000/svg" xmlns:xlink="http://www.w3.org/1999/xlink" x="0px" y="0px"
	 width="35px" height="35px" viewBox="0 0 35 35" enable-background="new 0 0 35 35" xml:space="preserve">
<rect x="-618.5" y="-376.5" fill="#FFFFFF" width="29" height="29"/>
<rect x="630.5" y="400.5" fill="#FFFFFF" width="16" height="16"/>
<g>
	<path fill="#33B8DA" d="M6.785,14.57c-0.287-1.699,0.163-3.142,1.551-4.175c1.593-1.185,3.259-1.106,4.932-0.053
		c1.001-1.995,2.52-3.402,4.642-4.113c1.592-0.534,3.194-0.521,4.796-0.043c2.754,0.821,5.961,3.945,5.429,8.411
		c1.036,0.193,1.994,0.581,2.833,1.231c1.364,1.059,2.197,2.433,2.457,4.15c0.52,3.439-1.762,6.471-4.829,7.182
		c-0.471,0.109-0.961,0.185-1.443,0.186c-6.509,0.012-13.017,0.008-19.526,0.008c-3.085,0-5.794-2.352-6.269-5.414
		c-0.57-3.678,1.968-6.798,5.293-7.324C6.697,14.609,6.739,14.586,6.785,14.57z M16.512,18.77c-0.849,0-1.657-0.008-2.464,0.007
		c-0.138,0.003-0.341,0.068-0.39,0.166c-0.045,0.09,0.043,0.293,0.131,0.397c1.362,1.593,2.731,3.18,4.105,4.762
		c0.411,0.474,0.743,0.455,1.143-0.015c0.826-0.97,1.66-1.933,2.489-2.9c0.535-0.624,1.074-1.244,1.597-1.878
		c0.079-0.096,0.148-0.285,0.105-0.373c-0.045-0.092-0.229-0.145-0.358-0.159c-0.224-0.025-0.452-0.006-0.679-0.006
		c-0.591,0-1.181,0-1.79,0c0-0.182,0-0.312,0-0.442c0-1.871,0-3.743,0-5.614c0-0.546-0.055-0.602-0.583-0.602
		c-0.906,0-1.812,0-2.718,0c-0.54,0-0.586,0.043-0.586,0.59c-0.001,1.883-0.001,3.767-0.001,5.65
		C16.512,18.481,16.512,18.609,16.512,18.77z"/>
</g>
</svg>
