<?xml version="1.0" encoding="utf-8"?>
<!-- Generator: Adobe Illustrator 17.0.0, SVG Export Plug-In . SVG Version: 6.00 Build 0)  -->
<!DOCTYPE svg PUBLIC "-//W3C//DTD SVG 1.1//EN" "http://www.w3.org/Graphics/SVG/1.1/DTD/svg11.dtd">
<svg version="1.1" id="Слой_1" xmlns="http://www.w3.org/2000/svg" xmlns:xlink="http://www.w3.org/1999/xlink" x="0px" y="0px"
	 width="35px" height="35px" viewBox="0 0 35 35" enable-background="new 0 0 35 35" xml:space="preserve">
<rect x="-618.5" y="-376.5" fill="#FFFFFF" width="29" height="29"/>
<rect x="630.5" y="400.5" fill="#FFFFFF" width="16" height="16"/>
<g>
	<path fill="#33B8DA" d="M15.271,23.052c1.461,0.756,2.998,1.066,4.633,0.866c0.013,0.024,0.025,0.048,0.038,0.072
		c-0.211,0.201-0.428,0.396-0.633,0.603c-1.184,1.194-2.363,2.394-3.549,3.587c-1.417,1.425-3.141,2.096-5.136,1.919
		c-2.796-0.248-5.028-2.273-5.596-4.946c-0.487-2.292,0.105-4.288,1.742-5.96c1.683-1.718,3.385-3.417,5.072-5.13
		c0.969-0.984,2.119-1.643,3.48-1.866c1.849-0.302,3.543,0.111,5.03,1.27c0.605,0.472,0.791,1.119,0.526,1.845
		c-0.28,0.767-0.763,1.351-1.61,1.531c-0.437,0.092-0.834-0.071-1.226-0.234c-0.37-0.154-0.725-0.36-1.108-0.458
		c-0.751-0.192-1.472-0.048-2.032,0.497c-1.354,1.318-2.68,2.666-4.012,4.007c-0.543,0.547-1.122,1.069-1.599,1.67
		c-1.095,1.378-0.234,3.534,1.505,3.797c0.763,0.115,1.47-0.068,2.039-0.637C13.641,24.68,14.446,23.876,15.271,23.052z"/>
	<path fill="#33B8DA" d="M20.079,11.567c-1.457-0.756-2.995-1.057-4.678-0.853c0.082-0.099,0.124-0.158,0.175-0.21
		c1.328-1.344,2.661-2.683,3.984-4.032c1.097-1.119,2.419-1.805,3.973-1.945c3.152-0.283,5.916,1.636,6.718,4.648
		c0.638,2.396,0.043,4.514-1.703,6.289c-1.644,1.671-3.305,3.327-4.943,5.004c-0.986,1.009-2.138,1.713-3.532,1.95
		c-1.905,0.324-3.642-0.1-5.146-1.332c-0.683-0.559-0.756-1.429-0.237-2.267c0.394-0.636,0.923-1.116,1.72-1.043
		c0.397,0.036,0.803,0.197,1.161,0.385c0.895,0.47,1.77,0.558,2.652,0.003c0.165-0.104,0.314-0.24,0.453-0.379
		c1.705-1.709,3.407-3.421,5.107-5.135c0.965-0.973,1.019-2.366,0.14-3.385c-0.839-0.973-2.429-1.056-3.361-0.166
		c-0.422,0.403-0.827,0.824-1.241,1.236C20.916,10.738,20.508,11.141,20.079,11.567z"/>
</g>
</svg>
