<?xml version="1.0" encoding="utf-8"?>
<!-- Generator: Adobe Illustrator 17.0.0, SVG Export Plug-In . SVG Version: 6.00 Build 0)  -->
<!DOCTYPE svg PUBLIC "-//W3C//DTD SVG 1.1//EN" "http://www.w3.org/Graphics/SVG/1.1/DTD/svg11.dtd">
<svg version="1.1" id="Слой_1" xmlns="http://www.w3.org/2000/svg" xmlns:xlink="http://www.w3.org/1999/xlink" x="0px" y="0px"
	 width="90px" height="90px" viewBox="0 0 90 90" enable-background="new 0 0 90 90" xml:space="preserve">
<path fill="#31B7DA" d="M90,68.472c0,2.761-1.754,5.881-5,7.117s-31.5,12.39-35.333,13.528s-5.343,1.217-8.501,0
	C38.008,87.9,7.701,76.954,5.057,75.588s-5-4.355-5-7.117V5c0-2.761,2.239-5,5-5H85c2.761,0,5,2.239,5,5V68.472z"/>
<g>
	<defs>
		<rect id="SVGID_1_" x="0" y="0" width="90" height="90"/>
	</defs>
	<clipPath id="SVGID_2_">
		<use xlink:href="#SVGID_1_"  overflow="visible"/>
	</clipPath>
</g>
<g>
	<path fill="#FFFFFF" d="M48.119,51.593c0,1.748,0,3.442,0.001,5.136c0,0.111,0.02,0.222,0.018,0.333
		c-0.014,0.771-0.552,1.136-1.279,0.863c-2.667-0.998-5.334-1.995-8-2.996c-2.609-0.979-5.214-1.967-7.826-2.937
		c-0.478-0.177-0.727-0.469-0.733-0.981c-0.01-0.977-0.042-1.955-0.038-2.932c0.001-0.271-0.085-0.383-0.34-0.459
		c-2.58-0.774-4.282-2.465-5.071-5.026c-1.229-3.988,1.292-8.321,5.377-9.239c2.374-0.534,4.544-0.044,6.435,1.528
		c0.197,0.164,0.336,0.158,0.578,0.044c1.803-0.841,3.614-1.665,5.434-2.468c3.002-1.324,6.015-2.623,9.017-3.946
		c0.695-0.306,1.363-0.674,2.045-1.009c0.974-0.479,1.833-0.099,2.036,0.97c0.364,1.918,0.71,3.842,0.995,5.773
		c0.393,2.66,0.45,5.345,0.353,8.026c-0.064,1.762-0.205,3.527-0.432,5.274c-0.245,1.886-0.621,3.755-0.959,5.628
		c-0.177,0.982-0.999,1.394-1.915,0.981c-1.782-0.802-3.561-1.611-5.341-2.416C48.363,51.692,48.251,51.649,48.119,51.593z
		 M40.655,36.905c-0.136,0.793,0.268,1.043,0.879,0.958c1.158-0.162,2.32-0.295,3.481-0.429c1.59-0.183,3.181-0.35,4.771-0.535
		c1.382-0.161,2.761-0.342,4.142-0.503c0.576-0.067,0.767-0.321,0.666-0.891c-0.272-1.536-0.537-3.072-0.795-4.61
		c-0.118-0.703-0.476-0.896-1.116-0.577c-3.804,1.894-7.606,3.793-11.416,5.675C40.845,36.201,40.556,36.432,40.655,36.905z
		 M32.892,47.862c0,0.29,0.001,0.584,0,0.878c-0.004,0.692,0.137,0.909,0.783,1.179c1.269,0.531,2.539,1.059,3.809,1.587
		c2.212,0.92,4.424,1.838,6.635,2.76c0.279,0.116,0.538,0.132,0.812-0.024c0.379-0.215,0.448-0.567,0.45-0.95
		c0.003-0.878-0.018-1.757,0.001-2.635c0.006-0.26-0.087-0.363-0.307-0.462c-2.153-0.967-4.301-1.943-6.448-2.923
		c-0.592-0.27-1.187-0.54-1.754-0.857c-0.202-0.113-0.306-0.155-0.504-0.004C35.355,47.191,34.202,47.653,32.892,47.862z"/>
	<path fill="#FFFFFF" d="M62.614,40.264c-0.101,1.809-0.174,3.328-0.272,4.844c-0.215,3.324-0.784,6.59-1.637,9.807
		c-0.06,0.225-0.122,0.45-0.196,0.671c-0.241,0.716-0.91,1.097-1.59,0.913c-0.733-0.198-1.17-0.916-1.012-1.656
		c0.385-1.812,0.805-3.619,1.139-5.441c0.204-1.112,0.32-2.246,0.393-3.376c0.132-2.021,0.288-4.047,0.275-6.07
		c-0.013-1.972-0.167-3.949-0.368-5.913c-0.25-2.434-0.763-4.826-1.391-7.192c-0.206-0.775,0.229-1.475,0.997-1.667
		c0.709-0.178,1.388,0.216,1.597,0.965c0.287,1.028,0.594,2.053,0.802,3.098c0.319,1.603,0.64,3.212,0.814,4.835
		C62.396,36.231,62.484,38.393,62.614,40.264z"/>
</g>
</svg>
