<?xml version="1.0" encoding="utf-8"?>
<!-- Generator: Adobe Illustrator 17.0.0, SVG Export Plug-In . SVG Version: 6.00 Build 0)  -->
<!DOCTYPE svg PUBLIC "-//W3C//DTD SVG 1.1//EN" "http://www.w3.org/Graphics/SVG/1.1/DTD/svg11.dtd">
<svg version="1.1" id="Слой_1" xmlns="http://www.w3.org/2000/svg" xmlns:xlink="http://www.w3.org/1999/xlink" x="0px" y="0px"
	 width="90px" height="90px" viewBox="0 0 90 90" enable-background="new 0 0 90 90" xml:space="preserve">
<path fill="#31B7DA" d="M90,68.472c0,2.761-1.754,5.881-5,7.117s-31.5,12.39-35.333,13.528s-5.343,1.217-8.501,0
	C38.008,87.9,7.701,76.954,5.057,75.588s-5-4.355-5-7.117V5c0-2.761,2.239-5,5-5H85c2.761,0,5,2.239,5,5V68.472z"/>
<g>
	<path fill="#FFFFFF" d="M53.774,54.129l0.445,0.731c2.732-0.849,4.716-3.397,4.716-6.409V27.806c0-3.706-3.004-6.71-6.71-6.71
		H37.774c-3.706,0-6.71,3.004-6.71,6.71v20.645c0,3.011,1.984,5.56,4.716,6.409l0.445-0.731H53.774z M52.226,52.065
		c-1.425,0-2.581-1.155-2.581-2.581c0-1.425,1.155-2.581,2.581-2.581c1.425,0,2.581,1.155,2.581,2.581
		C54.806,50.909,53.651,52.065,52.226,52.065z M40.871,23.161c0-0.57,0.462-1.032,1.032-1.032h6.194c0.57,0,1.032,0.462,1.032,1.032
		v2.065c0,0.57-0.462,1.032-1.032,1.032h-6.194c-0.57,0-1.032-0.462-1.032-1.032V23.161z M34.677,30.387
		c0-1.71,1.386-3.097,3.097-3.097h14.452c1.71,0,3.097,1.386,3.097,3.097v4.129c0,1.71-1.386,3.097-3.097,3.097H37.774
		c-1.71,0-3.097-1.386-3.097-3.097V30.387z M35.194,49.484c0-1.425,1.155-2.581,2.581-2.581s2.581,1.155,2.581,2.581
		c0,1.425-1.155,2.581-2.581,2.581S35.194,50.909,35.194,49.484z"/>
	<circle fill="#FFFFFF" cx="42.936" cy="19.032" r="1.548"/>
	<circle fill="#FFFFFF" cx="47.065" cy="19.032" r="1.548"/>
	<path fill="#FFFFFF" d="M54.219,56.86c-0.63,0.196-1.299,0.301-1.993,0.301H37.774c-0.694,0-1.364-0.105-1.993-0.301L29,68h4.645
		l4.645-7.742H51.71L56.355,68H61L54.219,56.86z"/>
	<path fill="#FFFFFF" d="M52.226,55.161c0.694,0,1.364-0.105,1.993-0.301l-0.445-0.731H36.226l-0.445,0.731
		c0.63,0.196,1.299,0.301,1.993,0.301H52.226z"/>
</g>
</svg>
