<?xml version="1.0" encoding="UTF-8" standalone="no"?>
<svg
   xmlns:dc="http://purl.org/dc/elements/1.1/"
   xmlns:cc="http://creativecommons.org/ns#"
   xmlns:rdf="http://www.w3.org/1999/02/22-rdf-syntax-ns#"
   xmlns:svg="http://www.w3.org/2000/svg"
   xmlns="http://www.w3.org/2000/svg"
   xmlns:sodipodi="http://sodipodi.sourceforge.net/DTD/sodipodi-0.dtd"
   xmlns:inkscape="http://www.inkscape.org/namespaces/inkscape"
   version="1.1"
   x="0"
   y="0"
   viewBox="0 0 1354.0056 1596.8"
   enable-background="new 0 0 760 820"
   xml:space="preserve"
   width="184.16833"
   height="200"
   id="svg2"
   inkscape:version="0.48.5 r10040"
   sodipodi:docname="metro.svg"><metadata
     id="metadata36"><rdf:RDF><cc:Work
         rdf:about=""><dc:format>image/svg+xml</dc:format><dc:type
           rdf:resource="http://purl.org/dc/dcmitype/StillImage" /><dc:title /></cc:Work></rdf:RDF></metadata><defs
     id="defs34" /><sodipodi:namedview
     pagecolor="#ffffff"
     bordercolor="#666666"
     borderopacity="1"
     objecttolerance="10"
     gridtolerance="10"
     guidetolerance="10"
     inkscape:pageopacity="0"
     inkscape:pageshadow="2"
     inkscape:window-width="1366"
     inkscape:window-height="705"
     id="namedview32"
     showgrid="false"
     fit-margin-top="0"
     fit-margin-left="0"
     fit-margin-right="0"
     fit-margin-bottom="0"
     inkscape:zoom="2.36"
     inkscape:cx="35.065954"
     inkscape:cy="100.84746"
     inkscape:window-x="-4"
     inkscape:window-y="-4"
     inkscape:window-maximized="1"
     inkscape:current-layer="svg2" /><style
     id="style4">.s0{fill:#0168d3;}.s1{fill:#fff;}.s2{fill:#fff;stroke-linecap:round;stroke-linejoin:round;stroke-width:1;stroke:#fff;}</style><g
     id="g3788"><circle
       transform="matrix(2,0,0,2,-86.797193,-28)"
       style="fill:#0168d3"
       sodipodi:ry="345"
       sodipodi:rx="345"
       sodipodi:cy="359"
       sodipodi:cx="380.10001"
       cx="380.10001"
       cy="359"
       r="345"
       d="m 725.10001,359 c 0,190.53824 -154.46177,345 -345,345 C 189.56177,704 35.100006,549.53824 35.100006,359 c 0,-190.53824 154.461764,-345 345.000004,-345 190.53823,0 345,154.46176 345,345 z"
       id="circle8" /><circle
       transform="matrix(2,0,0,2,-86.797193,-28)"
       sodipodi:ry="329.20001"
       sodipodi:rx="329.20001"
       sodipodi:cy="361.20001"
       sodipodi:cx="380.79999"
       stroke-miterlimit="10"
       cx="380.79999"
       cy="361.20001"
       r="329.20001"
       d="M 710,361.20001 C 710,543.01216 562.61213,690.40002 380.79999,690.40002 198.98784,690.40002 51.599976,543.01216 51.599976,361.20001 51.599976,179.38787 198.98784,32 380.79999,32 562.61213,32 710,179.38787 710,361.20001 z"
       style="fill:#0168d3;stroke:#ffffff;stroke-width:6;stroke-miterlimit:10"
       id="circle10" /><polygon
       transform="matrix(2,0,0,2,-86.797193,-28)"
       style="fill:#0168d3"
       points="453.8,715.5 380.1,812.4 310.9,715 286.3,781.2 14.3,781.2 111.3,561 119.3,575.7 129,555.7 117,548.1 228.7,292.7 380.1,479.2 526.7,292.7 643.8,548.8 629.7,552.5 640,575.8 649.6,561.4 749.5,779.8 487.3,779.7 "
       id="polygon14" /><polygon
       transform="matrix(2,0,0,2,-86.797193,-28)"
       stroke-miterlimit="10"
       points="501.3,762.7 457.2,677.7 380.1,781.2 306.5,677.3 273.3,763.3 40.7,763.3 233.3,326.7 380.1,513.9 524.7,326.7 720.7,762.7 "
       style="fill:#fc020d;stroke:#ffffff;stroke-width:5;stroke-miterlimit:10"
       id="polygon16" /><g
       style="fill:#ffffff;fill-opacity:1"
       transform="matrix(2,0,0,2,-86.797193,-932.72436)"
       id="g18"><g
         style="fill:#ffffff;fill-opacity:1"
         transform="matrix(2.7198446,0,0,2.7198446,-196.12927,225.64235)"
         id="g20"><path
           style="fill:#ffffff;fill-opacity:1"
           inkscape:connector-curvature="0"
           d="m 214.7,135.5 c -6,-1.1 -5.9,-7 -4.6,-11.8 0.6,-2.2 2.8,-6.7 7.8,-8.6 -5.7,-0.4 -6.7,4.5 -7.7,4.1 -0.6,-0.3 0.2,-4.7 0.9,-6.6 -3.1,2.1 -2.3,8.2 -2.5,10.2 -0.5,4.8 -1.3,5.4 -4,1.7 -0.9,-1.3 -1.1,-2.4 -1.5,-5.4 -1.6,6.5 3.8,9.6 5,12 0.5,1.1 -0.5,1.8 -2.2,0.9 -1,-0.5 -1.2,-0.7 -2.1,-2.3 1,6 4.4,2.2 6.8,6.6 0.9,-0.2 1.8,-0.2 2.6,0.1 l 1.5,-0.9 0,0 z"
           id="path22" /><path
           style="fill:#ffffff;stroke:#ffffff;stroke-width:0.50000000000000000;stroke-linecap:round;stroke-linejoin:round;fill-opacity:1"
           inkscape:connector-curvature="0"
           d="m 238.4,165.8 0.9,1.3 c 0.5,-0.2 1.3,-0.6 1.3,-1.8 0,-2 -0.3,0.4 -2.2,0.5 -2.8,-2.6 -3.8,-4.3 -8.6,-4.3 -4.1,0.1 -3.8,1.6 -7,1.7 -2.1,0.1 -2.3,-1.1 -5.3,-1.3 -2,-0.1 -3.9,1.6 -4.9,0.6 -1.1,-1.1 -1.1,-4.1 -0.2,-5.2 4.8,-6.1 4.7,-13.6 3.9,-17.3 -0.2,0 -0.5,-0.1 -0.7,-0.2 1.8,0.4 3.1,0.6 3.9,-1.7 0.4,-1.3 -0.1,-1.1 -0.5,-0.6 -0.8,1 -2.3,1.2 -3.2,0.9 -0.9,-1.3 -2.3,-2.1 -3.8,-2.2 -2.9,-0.1 -2.4,1.5 -6,2.1 l 0.1,0.5 -0.1,-0.5 c -0.7,0.1 -1.6,0.2 -2.8,0.2 l -0.6,2.4 c 3.6,0.1 4.8,1.5 1.2,1.4 -0.5,0 -1.8,-0.2 -1.4,0.6 0.3,0.7 0.6,0.3 1.3,0.3 0.6,0 1.4,0.1 2.3,0.2 0.9,0.1 1.1,1.5 2.6,1.8 1.8,0.3 3.3,-1 4.9,-3.3 -1.6,2.3 -3.1,3.6 -4.9,3.3 0,2.2 -0.5,4.7 -3.1,5.3 -1.1,0.2 -9.6,1.9 -9.7,10.8 0,3.6 -0.1,3.5 0.1,5.5 0.1,2.1 0.7,3.5 1.1,5 -3.3,0.8 -3.6,1.4 -5.3,1.9 -2.8,0.8 -5.6,1.1 -8.7,0.9 l -0.6,0.4 c -1.4,3.8 -5.6,6.6 -9,9.8 l -0.1,0.3 c 0.3,1.5 0,3.2 -0.2,4.6 l 1.6,-0.6 c -0.1,-1.3 0.1,-2.4 0.6,-3.4 l 0.9,-0.4 c 2.7,-3.3 5.3,-5.5 8.3,-8 2.3,-0.9 5.3,-0.8 7.1,-0.5 2.4,0.4 4.4,2.3 7.5,3.1 -0.3,-1.3 -0.3,-2.7 -0.2,-3.8 -0.1,1 0,2.5 0.2,3.8 0.3,1.4 0.6,2.8 1,3.7 1.4,2.9 1.7,5 1.4,8.8 l 0.2,0.5 c 2,3.1 3.7,6.4 4.6,11.2 l 0,0.2 c -0.1,1.3 -1.2,3.5 -2.8,5.5 l 1.7,0.5 c 0.8,-1.7 2.2,-3.4 3.7,-4.8 l 0,-0.7 c -1.9,-4.1 -3.3,-8.7 -4.1,-13.4 l -0.1,-0.4 c -1.2,-2.6 -1.2,-8.1 0.8,-9.9 0.7,-0.6 0.1,-5.5 0.1,-8.2 0,2.7 0.5,7.6 -0.1,8.2 3.8,3.8 9.7,0.4 16.8,-1.6 1.8,-0.5 3.2,-1.1 4.3,-1.8 -1.1,0.7 -2.6,1.3 -4.3,1.8 -1.6,1.5 -1.4,6.6 0.9,15.8 0,2.1 -2.7,6.7 -5.1,9.1 -0.7,2.3 -1.5,3.7 -3,5.3 l 1.7,0.5 c 0.8,-1.8 1.9,-3 2.8,-3.5 l 0.7,-0.6 c 0.5,-3 3.8,-7.4 6,-10.3 v -1.1 c -1.8,-2.5 -1.9,-3.7 -1.9,-4.6 0,-3.1 4.6,-3.1 6.3,-7.5 -1.9,-1.2 -4,-4.2 -5.4,-8.3 1.4,4.2 3.5,7.1 5.4,8.3 7.7,5 10.3,6.4 13.7,11.8 1.6,2.6 2.8,6.5 4.1,10.8 -0.8,1.9 -1.7,3.3 -2.8,4.6 l 1.7,0.5 c 0.7,-1.2 1.9,-3.3 3.2,-3.4 l -0.3,-1.6 c -1.8,-3.8 -2.5,-7.7 -2.9,-12.2 l -0.6,-1.2 c -4.9,-3.3 -8.5,-8.7 -7.8,-13.6 0.5,-3.3 3.6,-5 0.2,-11.2 l -0.8,-1.3 0,0 z"
           class="s2"
           id="path24" /><ellipse
           style="fill:#ffffff;fill-opacity:1"
           sodipodi:ry="0.60000002"
           sodipodi:rx="0.80000001"
           sodipodi:cy="139.2"
           sodipodi:cx="210.10001"
           cx="210.10001"
           cy="139.2"
           rx="0.80000001"
           ry="0.60000002"
           d="m 210.90001,139.2 c 0,0.33137 -0.35818,0.6 -0.8,0.6 -0.44183,0 -0.8,-0.26863 -0.8,-0.6 0,-0.33137 0.35817,-0.6 0.8,-0.6 0.44182,0 0.8,0.26863 0.8,0.6 z"
           id="ellipse26" /><path
           style="fill:#ffffff;stroke:#ffffff;stroke-width:0.50000000000000000;stroke-linecap:round;stroke-linejoin:round;fill-opacity:1"
           inkscape:connector-curvature="0"
           d="m 203.2,138.6 -0.6,2.4 c -0.6,0 -0.8,-0.9 -0.8,-1.7 0,-0.7 0.5,-0.8 1.4,-0.7 l 0,0 z m 13.7,73.4 0,-1.8 -1.7,-0.5 m 1.7,2.3 0,-1.8 -1.7,-0.5 c -1,0.5 -1.6,1.3 -2.2,2.3 h 3.9 l 0,0 z m -11.6,0 0,-1.8 -1.7,-0.5 c -1,0.5 -1.6,1.3 -2.2,2.3 h 3.9 l 0,0 z m 42.1,0 0,-1.8 -1.7,-0.5 c -1,0.5 -1.6,1.3 -2.2,2.3 h 3.9 l 0,0 z m -71.6,-21.5 -0.9,-1.5 -1.6,0.6 c -0.5,1.1 -0.6,2.1 -0.6,3.3 l 3.1,-2.4 z"
           class="s2"
           id="path28" /><path
           style="fill:#ffffff;fill-opacity:1"
           inkscape:connector-curvature="0"
           d="m 213.1,136.5 c 0.8,0.3 1.6,0.8 2.4,1.7 3.9,-3.7 9,-4.5 11.3,-9.6 1.5,-3.4 1.9,-11.9 -0.6,-16.7 1.5,12.1 -0.5,15.7 -3,4.2 -1.1,6.6 4.1,10.9 0.6,14.4 -1.8,1.8 -3.1,-0.4 -4.4,-5.9 -1.7,5 1.7,6.7 0,8.6 -1.9,2.2 -4.3,2 -4.7,-3.1 -1.2,1.8 -0.6,3.9 0,5.5 l -1.3,-0.2 -2.1,0 1.8,1.1 0,0 z"
           id="path30" /></g></g></g></svg>