<svg xmlns="http://www.w3.org/2000/svg" xmlns:svg="http://www.w3.org/2000/svg" width="575.4" height="575.4"><title>Layer 1</title><polygon fill="#db2c2d" points="435.6 447.6 363.5 174 287.7 324.4 212 174 139.9 447.6 197 447.9 227.3 329.4 287.7 457.2 348.2 329.4 378.5 447.9 "/><path fill="#0097f1" d="m287.7 138.4c78.9 0 147.8 39 147.8 39 169 116.2 6.1 270.7 6.1 270.7 0 0 292.1-157.9 13.1-291 0 0-70.4-39-167-39 -96.6 0-167 39-167 39 -279 133.1 13.1 291 13.1 291 0 0-162.9-154.5 6.1-270.7 0 0 69-39 147.8-39z"/></svg>