<?xml version="1.0" encoding="UTF-8" standalone="no"?>
<!-- Generator: Adobe Illustrator 17.1.0, SVG Export Plug-In . SVG Version: 6.00 Build 0)  -->

<svg
   xmlns:ns="&amp;ns_sfw;"
   xmlns:dc="http://purl.org/dc/elements/1.1/"
   xmlns:cc="http://creativecommons.org/ns#"
   xmlns:rdf="http://www.w3.org/1999/02/22-rdf-syntax-ns#"
   xmlns:svg="http://www.w3.org/2000/svg"
   xmlns="http://www.w3.org/2000/svg"
   xmlns:sodipodi="http://sodipodi.sourceforge.net/DTD/sodipodi-0.dtd"
   xmlns:inkscape="http://www.inkscape.org/namespaces/inkscape"
   version="1.1"
   id="Слой_1"
   x="0px"
   y="0px"
   viewBox="0 0 575.385 339.09999"
   enable-background="new 0 0 595.3 358.3"
   xml:space="preserve"
   inkscape:version="0.48.5 r10040"
   width="100%"
   height="100%"
   sodipodi:docname="Logo-Nsk-Metro.svg"><defs
   id="defs11" /><sodipodi:namedview
   pagecolor="#ffffff"
   bordercolor="#666666"
   borderopacity="1"
   objecttolerance="10"
   gridtolerance="10"
   guidetolerance="10"
   inkscape:pageopacity="0"
   inkscape:pageshadow="2"
   inkscape:window-width="640"
   inkscape:window-height="480"
   id="namedview9"
   showgrid="false"
   fit-margin-top="0"
   fit-margin-left="0"
   fit-margin-right="0"
   fit-margin-bottom="0"
   inkscape:zoom="0.5778599"
   inkscape:cx="287.74251"
   inkscape:cy="173.04999"
   inkscape:window-x="0"
   inkscape:window-y="0"
   inkscape:window-maximized="0"
   inkscape:current-layer="Слой_1" />
<metadata
   id="metadata3">
	<ns:sfw>
		<ns:slices />
		<ns:sliceSourceBounds
   width="575.4"
   height="339.2"
   bottomLeftOrigin="true"
   x="9.9"
   y="339.3" />
	</ns:sfw>
<rdf:RDF><cc:Work
     rdf:about=""><dc:format>image/svg+xml</dc:format><dc:type
       rdf:resource="http://purl.org/dc/dcmitype/StillImage" /></cc:Work></rdf:RDF></metadata>
<polygon
   points="445.5,342.6 373.4,69 297.6,219.4 221.9,69 149.8,342.6 206.9,342.9 237.2,224.4 297.6,352.2 358.1,224.4 388.4,342.9 "
   id="polygon5"
   style="fill:#db2c2d"
   transform="translate(-9.9074948,-13.1)" />
<path
   d="m 287.69251,20.3 c 78.9,0 147.8,39 147.8,39 169,116.2 6.1,270.7 6.1,270.7 0,0 292.1,-157.9 13.1,-291 0,0 -70.4,-39 -167,-39 -96.6,0 -167,39 -167,39 -279,133.1 13.1,291 13.1,291 0,0 -162.900005,-154.5 6.1,-270.7 0,0 69,-39 147.8,-39 z"
   id="path7"
   inkscape:connector-curvature="0"
   style="fill:#0097f1" />
</svg>