<?xml version="1.0" encoding="utf-8"?>
<!DOCTYPE svg PUBLIC "-//W3C//DTD SVG 1.1//EN" "http://www.w3.org/Graphics/SVG/1.1/DTD/svg11.dtd">
<svg version="1.1" id="Layer_1" xmlns="http://www.w3.org/2000/svg" xmlns:xlink="http://www.w3.org/1999/xlink" x="0px" y="0px"
	 width="234.166px" height="234.492px" viewBox="0 0 234.166 234.492" enable-background="new 0 0 234.166 234.492"
	 xml:space="preserve">
<circle fill="#0B4372" cx="117.246" cy="117.246" r="117.246"/>
<path fill="none" stroke="#EFE055" stroke-width="3" stroke-miterlimit="10" d="M74.175,21.907l-2.905-5.189
	c23.606-10.885,51.074-13.678,78.021-5.941c4.623,1.328,9.095,2.924,13.405,4.768l-2.324,5.129"/>
<path fill="none" stroke="#EFE055" stroke-width="3" stroke-miterlimit="10" d="M14.101,96.097l-5.889-0.843
	C13.903,69.89,28.367,46.37,50.874,29.661c3.864-2.864,7.853-5.447,11.934-7.754l2.659,4.961"/>
<path fill="none" stroke="#EFE055" stroke-width="3" stroke-miterlimit="10" d="M39.736,188.473l-4.076,4.334
	c-17.489-19.23-28.424-44.58-29.162-72.609c-0.129-4.809,0.052-9.555,0.507-14.221l5.596,0.676"/>
<path fill="none" stroke="#EFE055" stroke-width="3" stroke-miterlimit="10" d="M220.324,94.717l5.887-0.843
	c-5.689-25.364-20.154-48.884-42.662-65.593c-3.864-2.864-7.852-5.447-11.934-7.753l-2.659,4.961"/>
<path fill="none" stroke="#EFE055" stroke-width="3" stroke-miterlimit="10" d="M194.687,187.093l4.076,4.334
	c17.491-19.23,28.424-44.58,29.163-72.609c0.129-4.809-0.051-9.555-0.506-14.221l-5.596,0.676"/>
<path fill="#F6E548" d="M194.461,200.048c-20.246,18.979-47.273,30.414-77.215,30.414c-29.875,0-57.049-11.57-77.28-30.474
	L194.461,200.048"/>
<path fill="#FD0402" stroke="#EFE055" stroke-width="3" stroke-miterlimit="10" d="M120.212,180.396l32.531-68.487
	c4.399,29.112,11.52,50.057,49.287,47.474L162.378,42.095l-42.167,73.444L78.045,42.095L38.393,159.383
	c37.769,2.583,44.889-18.361,49.287-47.474L120.212,180.396z"/>
<path fill="none" stroke="#FD0402" stroke-miterlimit="10" d="M1778.115,44.656"/>
</svg>
