<?xml version="1.0" encoding="UTF-8" standalone="no"?>
<!-- Created with Inkscape (http://www.inkscape.org/) -->

<svg
   xmlns:dc="http://purl.org/dc/elements/1.1/"
   xmlns:cc="http://creativecommons.org/ns#"
   xmlns:rdf="http://www.w3.org/1999/02/22-rdf-syntax-ns#"
   xmlns:svg="http://www.w3.org/2000/svg"
   xmlns="http://www.w3.org/2000/svg"
   xmlns:sodipodi="http://sodipodi.sourceforge.net/DTD/sodipodi-0.dtd"
   xmlns:inkscape="http://www.inkscape.org/namespaces/inkscape"
   width="300"
   height="300"
   id="svg2"
   version="1.1"
   inkscape:version="0.48.2 r9819"
   sodipodi:docname="Новый документ 1">
  <defs
     id="defs4" />
  <sodipodi:namedview
     id="base"
     pagecolor="#ffffff"
     bordercolor="#666666"
     borderopacity="1.0"
     inkscape:pageopacity="0.0"
     inkscape:pageshadow="2"
     inkscape:zoom="2.7633333"
     inkscape:cx="150"
     inkscape:cy="150"
     inkscape:document-units="px"
     inkscape:current-layer="layer1"
     showgrid="false"
     fit-margin-top="0"
     fit-margin-left="0"
     fit-margin-right="0"
     fit-margin-bottom="0"
     inkscape:window-width="1920"
     inkscape:window-height="1018"
     inkscape:window-x="-8"
     inkscape:window-y="-8"
     inkscape:window-maximized="1" />
  <metadata
     id="metadata7">
    <rdf:RDF>
      <cc:Work
         rdf:about="">
        <dc:format>image/svg+xml</dc:format>
        <dc:type
           rdf:resource="http://purl.org/dc/dcmitype/StillImage" />
        <dc:title></dc:title>
      </cc:Work>
    </rdf:RDF>
  </metadata>
  <g
     inkscape:label="Layer 1"
     inkscape:groupmode="layer"
     id="layer1"
     transform="translate(-247.03547,-415.66541)">
    <g
       id="g3793"
       transform="matrix(1.0035267,0,0,1.0035267,1011.0062,111.45973)"
       style="stroke:none">
      <path
         transform="translate(2,-4)"
         d="m -464.34019,456.60947 c 0,82.55157 -66.92128,149.47285 -149.47286,149.47285 -82.55158,0 -149.47285,-66.92128 -149.47285,-149.47285 0,-82.55158 66.92127,-149.47286 149.47285,-149.47286 82.55158,0 149.47286,66.92128 149.47286,149.47286 z"
         sodipodi:ry="149.47285"
         sodipodi:rx="149.47285"
         sodipodi:cy="456.60947"
         sodipodi:cx="-613.81305"
         id="path3002"
         style="fill:#d40000;fill-opacity:1;stroke:none"
         sodipodi:type="arc" />
      <path
         id="path3008"
         d="m -644.125,358 c -42.65384,0 -77.25,34.56491 -77.25,77.21875 0,42.65384 34.59616,77.25 77.25,77.25 29.30935,0 54.79057,-16.35166 67.875,-40.40625 l -40.4375,0 c -7.65946,5.7168 -17.14485,9.09375 -27.4375,9.09375 -25.37457,0 -45.9375,-20.56293 -45.9375,-45.9375 0,-25.37457 20.56293,-45.9375 45.9375,-45.9375 13.58441,0 25.77606,5.90925 34.1875,15.28125 l 36.6875,0 C -585.11618,377.1659 -612.36829,358 -644.125,358 z"
         style="fill:#ffffff;fill-rule:evenodd;stroke:none"
         inkscape:connector-curvature="0" />
      <rect
         y="433.08353"
         x="-607.59686"
         height="29.466827"
         width="117.59203"
         id="rect3786"
         style="fill:none;stroke:none" />
      <path
         id="rect3788"
         d="m -607.59375,433.09375 0,29.46875 43.34375,0 0,85.1875 30.875,0 0,-85.1875 43.375,0 0,-29.46875 -43.375,0 -30.875,0 -43.34375,0 z"
         style="fill:#ffffff;stroke:none"
         inkscape:connector-curvature="0" />
    </g>
  </g>
</svg>
